<svg width="189" height="48" viewBox="0 0 189 48" fill="none" xmlns="http://www.w3.org/2000/svg">
<rect width="189" height="48" fill="#EA4646"/>
<path d="M41.162 28V18.2H42.975V22.89L46.699 18.2H48.841L45.999 21.7L49.464 28H47.343L44.767 23.226L42.975 25.452V28H41.162ZM52.0738 28.168L51.0938 26.684C51.5698 26.656 51.9571 26.6187 52.2558 26.572C52.5545 26.5253 52.7971 26.4577 52.9838 26.369C53.1751 26.2757 53.3361 26.1473 53.4668 25.984C53.5975 25.8207 53.7258 25.606 53.8518 25.34L50.5128 18.2H52.5428L54.5658 22.736C54.6078 22.8247 54.6451 22.9157 54.6778 23.009C54.7151 23.1023 54.7501 23.1957 54.7828 23.289C54.8201 23.1863 54.8575 23.0907 54.8948 23.002C54.9321 22.9133 54.9718 22.8223 55.0138 22.729L57.0438 18.2H59.0668L55.5388 25.746C55.3241 26.1987 55.1118 26.5743 54.9018 26.873C54.6918 27.1717 54.4585 27.412 54.2018 27.594C53.9498 27.7713 53.6511 27.9043 53.3058 27.993C52.9651 28.077 52.5545 28.1353 52.0738 28.168ZM60.535 28V18.2H68.172V28H66.359V19.936H62.348V28H60.535ZM70.4745 28V18.2H72.2735V23.877C72.2735 23.9657 72.2688 24.0917 72.2595 24.255C72.2548 24.4137 72.2455 24.556 72.2315 24.682C72.2828 24.5607 72.3505 24.423 72.4345 24.269C72.5232 24.115 72.5932 24.0007 72.6445 23.926L76.4805 18.2H78.2025V28H76.4035V22.358C76.4035 22.2087 76.4058 22.0617 76.4105 21.917C76.4198 21.7723 76.4315 21.6347 76.4455 21.504C76.3942 21.616 76.3195 21.7583 76.2215 21.931C76.1235 22.099 76.0442 22.225 75.9835 22.309L72.1195 28H70.4745ZM82.638 28V19.943H79.859V18.2H87.244V19.943H84.451V28H82.638ZM88.8905 28V18.2H90.7035V22.106H93.3145C93.9258 22.106 94.4438 22.1947 94.8685 22.372C95.2932 22.5447 95.6338 22.7757 95.8905 23.065C96.1518 23.3497 96.3408 23.6647 96.4575 24.01C96.5788 24.3553 96.6395 24.703 96.6395 25.053C96.6395 25.403 96.5788 25.7507 96.4575 26.096C96.3408 26.4413 96.1518 26.7587 95.8905 27.048C95.6338 27.3327 95.2932 27.5637 94.8685 27.741C94.4438 27.9137 93.9258 28 93.3145 28H88.8905ZM90.7035 26.313H93.4265C93.7532 26.313 94.0168 26.2547 94.2175 26.138C94.4228 26.0213 94.5722 25.8673 94.6655 25.676C94.7588 25.4847 94.8055 25.277 94.8055 25.053C94.8055 24.829 94.7588 24.6237 94.6655 24.437C94.5722 24.2457 94.4228 24.0917 94.2175 23.975C94.0168 23.8583 93.7532 23.8 93.4265 23.8H90.7035V26.313ZM102.2 19.901V18.2H108.626V19.901H102.2ZM101.92 28V18.2H103.733V22.106H106.344C106.955 22.106 107.473 22.1947 107.898 22.372C108.322 22.5447 108.663 22.7757 108.92 23.065C109.181 23.3497 109.37 23.6647 109.487 24.01C109.608 24.3553 109.669 24.703 109.669 25.053C109.669 25.403 109.608 25.7507 109.487 26.096C109.37 26.4413 109.181 26.7587 108.92 27.048C108.663 27.3327 108.322 27.5637 107.898 27.741C107.473 27.9137 106.955 28 106.344 28H101.92ZM103.733 26.313H106.456C106.782 26.313 107.046 26.2547 107.247 26.138C107.452 26.0213 107.601 25.8673 107.695 25.676C107.788 25.4847 107.835 25.277 107.835 25.053C107.835 24.829 107.788 24.6237 107.695 24.437C107.601 24.2457 107.452 24.0917 107.247 23.975C107.046 23.8583 106.782 23.8 106.456 23.8H103.733V26.313ZM111.422 28V18.2H113.221V23.877C113.221 23.9657 113.216 24.0917 113.207 24.255C113.202 24.4137 113.193 24.556 113.179 24.682C113.23 24.5607 113.298 24.423 113.382 24.269C113.47 24.115 113.54 24.0007 113.592 23.926L117.428 18.2H119.15V28H117.351V22.358C117.351 22.2087 117.353 22.0617 117.358 21.917C117.367 21.7723 117.379 21.6347 117.393 21.504C117.341 21.616 117.267 21.7583 117.169 21.931C117.071 22.099 116.991 22.225 116.931 22.309L113.067 28H111.422ZM128.247 28V19.929H123.382L123.655 18.2H130.06V28H128.247ZM121.569 28.168L120.757 26.726C121.093 26.6187 121.366 26.4833 121.576 26.32C121.786 26.1567 121.945 25.9467 122.052 25.69C122.16 25.4287 122.237 25.1043 122.283 24.717L122.997 18.2H124.845L124.061 25.039C123.959 25.9443 123.716 26.6373 123.333 27.118C122.951 27.594 122.363 27.944 121.569 28.168ZM132.353 28V18.2H138.975V19.922H134.166V22.078H137.015V23.8H134.166V26.264H139.269V28H132.353ZM143.245 28V19.943H140.466V18.2H147.851V19.943H145.058V28H143.245Z" fill="white"/>
</svg>
