<svg width="60" height="80" viewBox="0 0 60 80" fill="none" xmlns="http://www.w3.org/2000/svg">
<g clip-path="url(#clip0_44_3075)">
<path d="M26.6091 37.8413C26.6091 37.8413 21.4551 43.0842 21.4551 46.9588C21.4551 51.7921 25.4104 51.7921 26.6091 51.7921C27.8047 51.7921 31.757 51.7921 31.757 46.9588C31.757 42.6807 26.6091 37.8413 26.6091 37.8413Z" fill="#DC1F26"/>
<path d="M26.6069 64.9445C26.6069 64.9445 29.8467 60.6027 29.8467 57.3896C29.8467 53.3906 27.3587 53.3906 26.6069 53.3906C25.8551 53.3906 23.3672 53.3906 23.3672 57.3896C23.3672 60.9364 26.6069 64.9445 26.6069 64.9445Z" fill="#DC1F26"/>
<path d="M9.84277 37.802C9.84277 37.802 11.2407 39.6346 12.6387 42.6445C14.0366 45.6543 14.3687 47.3898 14.3687 47.3898C14.3687 47.3898 16.286 49.104 17.9617 50.1994C20.6157 51.9288 22.7776 52.3657 22.3096 51.2279C21.8446 50.0932 19.7582 46.5099 18.3603 44.7774C16.9623 43.045 14.1393 39.7712 12.9044 39.2341C12.6628 39.1279 12.382 39.0581 12.4152 39.0551C12.4907 39.0521 13.0735 39.1188 13.9792 39.5921C16.4189 40.8725 18.4539 44.2525 18.9883 44.8533C19.3114 45.2174 19.9152 46.0093 20.3379 46.5736C20.6127 46.9407 21.0294 47.4565 21.0263 47.3382C21.0263 47.2532 21.0414 46.0366 21.3132 45.0201C21.5125 44.2586 21.8325 43.5304 21.9684 43.2331C22.0106 43.139 22.0167 43.1299 22.0046 43.0905C21.9986 43.0601 21.9744 43.048 21.9231 43.0176C20.978 42.3835 15.5735 38.4089 13.3029 37.799C10.9086 37.1618 9.84277 37.802 9.84277 37.802Z" fill="#DC1F26"/>
<path d="M0.235472 58.6642C1.09296 57.1866 3.08873 54.0039 5.12074 53.0087C6.48245 52.3412 7.29163 51.6525 7.81699 51.5038C8.34235 51.3551 8.61107 51.5463 9.03982 51.7769C9.36591 51.9528 9.88825 52.1622 10.7216 52.3624C11.8719 52.6446 12.98 52.8752 13.6805 53.0148C14.1546 53.1088 14.2542 53.1422 14.4474 53.1422C14.7312 53.1422 15.0392 53.127 15.157 53.0906C15.3381 53.033 15.157 52.9419 15.0573 52.8995C14.9939 52.8813 14.9305 52.8691 14.8762 52.854C14.6044 52.7872 14.2965 52.7205 13.9492 52.6689C12.1527 52.4019 9.09417 51.4674 6.76325 49.3253C4.43535 47.1863 5.36832 47.8538 4.23608 46.9162C3.10685 45.9787 2.43958 46.1122 1.9746 46.3155C1.67871 46.4429 1.16844 46.6523 0.836317 46.7858C0.6461 46.8647 0.618926 46.8434 0.618926 46.8434C0.618926 46.8434 0.588733 46.8161 0.73366 46.6462C1.4432 45.8027 3.76808 43.251 6.36772 42.6412C10.9601 41.1727 12.0169 42.1224 12.0169 42.1224C12.0169 42.1224 14.3629 47.2075 13.8315 47.074C13.3001 46.9405 9.49272 43.4543 5.57062 44.5132C2.72641 45.2839 3.04042 45.4508 3.04042 45.4508C3.04042 45.4508 5.57062 44.316 8.03137 45.1838C10.4951 46.0515 11.8357 47.1893 14.0247 48.5273C16.2167 49.8623 18.3454 51.0669 18.3454 51.4006C18.3454 51.7101 17.1769 52.8024 16.6696 53.394C16.4583 53.7065 15.9148 54.4863 15.7004 54.6592C15.4378 54.8747 11.1081 54.8109 8.91301 54.8109C5.79405 54.8109 2.77472 56.4676 2.74151 56.6344C2.7083 56.8043 5.38644 55.2357 8.51446 55.5907C11.6425 55.9487 14.9517 55.6544 14.9517 55.7849C14.9517 55.9154 14.2361 56.8499 13.8375 57.7206C13.439 58.5884 13.3001 58.9039 13.0042 59.2104C12.8411 59.3803 8.45105 58.555 6.7874 58.018C5.12376 57.484 3.99151 57.214 2.26144 58.018C1.44622 58.3972 0.866511 58.6885 0.473998 58.91C0.0361966 59.1558 0.0603511 59.1497 0.0361965 59.1558C-0.0121126 59.1679 -0.0604218 59.1709 0.235472 58.6642Z" fill="#DC1F26"/>
<path d="M21.3622 52.7811C20.6647 52.9055 20.7372 52.2532 19.8404 52.153C18.9437 52.0529 17.2468 54.0584 16.3471 55.0627C15.4473 56.064 12.1563 61.58 12.5548 62.1838C12.9534 62.7845 14.5747 61.9835 16.1085 62.1838C17.6454 62.384 21.0361 62.0836 22.0355 61.7833L23.0349 61.4798C23.0349 61.4798 22.905 60.0751 22.6212 59.0738C22.3344 58.0695 21.1689 59.4743 19.7408 59.8778C17.1381 60.603 15.547 60.779 14.5506 61.2796C13.5512 61.7833 14.5506 61.0824 15.4473 60.3785C16.3471 59.6776 18.5421 59.3742 19.2396 58.9706C19.937 58.5701 21.7124 58.5701 22.3736 56.7649C23.0349 54.9596 23.9316 53.5548 23.5331 53.0542C23.1345 52.5535 23.1919 52.4534 21.3622 52.7811Z" fill="#DC1F26"/>
<path d="M43.6685 38.1266C43.6685 38.1266 42.2706 39.9592 40.8726 42.966C39.4747 45.9758 39.1395 47.7144 39.1395 47.7144C39.1395 47.7144 37.2223 49.4256 35.5496 50.5209C32.8956 52.2503 30.7368 52.6872 31.2048 51.5495C31.6727 50.4117 33.7591 46.8314 35.151 45.099C36.549 43.3695 39.372 40.0927 40.613 39.5557C40.8485 39.4525 41.1383 39.3797 41.1021 39.3797C41.0266 39.3736 40.4409 39.4404 39.5381 39.9167C37.0955 41.1971 35.0574 44.5741 34.526 45.1748C34.209 45.542 33.5991 46.3308 33.1764 46.8982C32.8986 47.2623 32.4849 47.7811 32.4849 47.6628C32.491 47.5748 32.4729 46.3581 32.2011 45.3417C32.0019 44.5801 31.6818 43.852 31.5459 43.5546C31.4976 43.4636 31.4916 43.4515 31.5037 43.412C31.5157 43.3817 31.5399 43.3726 31.5852 43.3392C32.5333 42.7051 37.9378 38.7304 40.2054 38.1236C42.5997 37.4834 43.6685 38.1266 43.6685 38.1266Z" fill="#DC1F26"/>
<path d="M53.2758 58.9857C52.4153 57.5111 50.4226 54.3253 48.3936 53.3302C47.0319 52.6627 46.2227 51.9739 45.6973 51.8253C45.1659 51.6766 44.9002 51.8677 44.4715 52.0983C44.1484 52.2743 43.6231 52.4837 42.7897 52.6839C41.6394 52.9661 40.5313 53.1967 39.8308 53.3393C39.3537 53.4333 39.2601 53.4637 39.0639 53.4637C38.7801 53.4637 38.4691 53.4515 38.3574 53.4121C38.1732 53.3544 38.3513 53.2634 38.457 53.2209C38.5174 53.2058 38.5808 53.1906 38.6351 53.1754C38.9069 53.1087 39.2118 53.045 39.5621 52.9903C41.3616 52.7233 44.4202 51.7888 46.7511 49.6468C49.076 47.5077 48.143 48.1783 49.2752 47.2407C50.4075 46.3032 51.0747 46.4367 51.5397 46.637C51.8356 46.7644 52.3429 46.9737 52.678 47.1103C52.8682 47.1861 52.8954 47.1649 52.8954 47.1649C52.8954 47.1649 52.9256 47.1376 52.7776 46.9707C52.0711 46.1242 49.7462 43.5755 47.1466 42.9657C42.5572 41.4942 41.4974 42.4469 41.4974 42.4469C41.4974 42.4469 39.1514 47.529 39.6859 47.3955C40.2173 47.262 44.0276 43.7788 47.9407 44.8347C50.7879 45.6054 50.4709 45.7722 50.4709 45.7722C50.4709 45.7722 47.9407 44.6375 45.483 45.5052C43.0252 46.373 41.6786 47.5108 39.4926 48.8488C37.2976 50.1868 35.1689 51.3914 35.1689 51.7251C35.1689 52.0316 36.3374 53.1238 36.8507 53.7155C37.0621 54.028 37.6055 54.8078 37.8169 54.9837C38.0766 55.1961 42.4063 55.1324 44.6043 55.1324C47.7173 55.1324 50.7366 56.789 50.7728 56.9559C50.809 57.1288 48.1249 55.5572 44.9999 55.9122C41.8749 56.2702 38.5657 55.9759 38.5657 56.1094C38.5657 56.2429 39.2782 57.1744 39.6798 58.0421C40.0753 58.9129 40.2173 59.2254 40.5101 59.5319C40.6762 59.7018 45.0693 58.8765 46.7269 58.3395C48.3966 57.8055 49.5228 57.5385 51.2559 58.3395C52.0711 58.7187 52.6478 59.01 53.0433 59.2315C53.4811 59.4772 53.457 59.4712 53.4811 59.4772C53.5234 59.4894 53.5687 59.4924 53.2758 58.9857Z" fill="#DC1F26"/>
<path d="M32.1491 53.1061C32.8436 53.2305 32.7681 52.5781 33.6709 52.478C34.5676 52.3809 36.2584 54.3865 37.1612 55.3877C38.0579 56.389 41.355 61.9049 40.9535 62.5087C40.5519 63.1125 38.9366 62.3115 37.3967 62.5087C35.8629 62.709 32.4661 62.4086 31.4698 62.1082L30.4734 61.8048C30.4734 61.8048 30.6032 60.4 30.887 59.3988C31.1709 58.3975 32.3363 59.8023 33.7645 60.2028C36.3641 60.928 37.9583 61.104 38.9547 61.6046C39.9571 62.1082 38.9547 61.4074 38.0579 60.7034C37.1612 59.9995 34.9631 59.6992 34.2657 59.2987C33.5652 58.8982 31.7959 58.8982 31.1346 57.0898C30.4734 55.2846 29.5767 53.8798 29.9722 53.3791C30.3768 52.8815 30.3164 52.7784 32.1491 53.1061Z" fill="#DC1F26"/>
<path d="M11.7453 1.45329C11.6125 1.65051 10.0032 1.66264 9.55934 1.8993C8.04364 2.70637 7.35523 1.86593 7.57866 1.46239C7.8504 0.964803 8.43313 0.697803 9.19702 0.612848C10.7339 0.445973 11.8389 1.31372 11.7453 1.45329ZM50.6855 36.8551L33.3184 19.9825L33.5177 17.9042L30.6221 17.9133L30.7822 17.5158L14.3933 1.5959C14.3933 1.5959 14.3601 1.59589 14.043 1.56555C13.726 1.52914 13.1463 1.84772 12.8625 1.76277C12.5817 1.68085 12.4971 1.56555 12.3975 1.27731C12.2948 0.995144 12.0412 0.646223 11.2049 0.285166C10.2598 -0.127472 9.35704 -0.0546532 8.35764 0.263927C7.35825 0.579473 7.04122 1.24697 6.97178 1.5959C6.90837 1.94785 7.05934 2.38779 7.52129 2.78223C8.12214 3.29802 10.4198 2.60018 11.232 2.38173C12.0473 2.16327 12.5213 3.60447 12.5213 3.60447L18.9645 9.86381L20.7429 9.11438L21.4917 12.3457L25.5376 16.29C25.5376 16.29 26.1505 16.7482 26.8842 17.3155C27.5817 17.8526 28.2701 17.7858 28.2701 17.7858L29.2212 17.449L33.4905 17.9406L32.9198 21.6877L37.1348 26.4694L37.4066 27.8651L48.6988 38.5512C48.6988 38.5512 48.5207 38.7059 49.5171 37.8442C50.5195 36.9795 50.6855 36.8551 50.6855 36.8551Z" fill="#DC1F26"/>
<path d="M38.3666 25.0554C37.796 24.5275 36.9053 23.596 36.0206 22.6403L37.6601 24.2423C36.9174 23.4656 35.927 22.3399 35.0786 21.3629L33.6112 19.7791C35.2869 21.2962 37.7447 23.9328 38.7471 25.283C38.8256 25.3892 38.4482 25.1313 38.3666 25.0554ZM37.1468 27.4979C35.767 26.2387 32.5937 22.6373 31.9687 22.0183C31.9083 21.9576 32.0442 21.9182 32.1106 21.9758C33.7863 23.4413 36.4615 26.2994 37.5243 27.7285C37.6058 27.8316 37.2284 27.5707 37.1468 27.4979ZM33.9977 25.641C33.4361 25.3255 32.9077 24.6822 32.9137 24.8339C32.9137 24.9553 32.7024 26.1052 32.5997 26.6028C32.5816 26.7485 32.5575 26.8334 32.5575 26.8334C32.5575 26.8334 32.5756 26.7424 32.5997 26.6028C32.6752 26.0506 32.642 24.6307 30.6825 23.6901C28.2489 22.522 24.2543 24.0967 24.2543 24.0967C24.2543 24.0967 25.5073 23.329 26.8207 23.0772C28.1342 22.8254 29.7163 22.9892 30.3413 23.0408C30.7942 23.0772 31.0267 22.2489 30.9602 21.7452C30.8999 21.2416 31.0538 21.1141 31.0538 21.1141C31.0538 21.1141 30.9602 22.6676 32.1438 23.6749C33.0224 24.4243 34.3087 25.5166 34.3087 25.5166C34.3087 25.5166 34.5623 25.9566 33.9977 25.641ZM24.5714 17.6522C24.3721 17.6371 23.3395 17.4004 23.0617 17.097C22.6873 16.6874 22.3733 15.9653 22.3733 15.9653C22.5877 16.0927 22.9832 16.6388 23.4814 17.1304C23.9464 17.5885 24.5714 17.6522 24.5714 17.6522ZM26.7573 19.5667C27.8866 19.3938 29.3268 20.2464 30.9663 20.0128C32.1861 19.8368 32.8956 19.3028 33.1191 18.9903C33.1734 18.9114 33.1885 18.8234 33.1945 18.7293C33.2127 18.3652 32.1166 18.2924 32.1166 18.2924C32.1166 18.2924 32.4065 18.2591 32.9198 18.2924C33.0798 18.3015 33.5448 18.5261 33.267 18.9326C33.2549 18.9539 33.2489 18.9842 33.2308 19.0145C33.2308 19.0145 33.2308 19.0176 33.2308 19.0206C33.1251 19.2209 32.8775 19.5334 32.2284 19.8337C31.1656 20.3283 29.7042 20.4102 28.9011 20.1432C28.107 19.8793 26.9083 19.676 26.5067 20.0128C26.1082 20.3465 24.6438 22.4855 24.6438 22.4855L24.511 22.7556C24.3781 23.0195 24.4838 23.0469 24.3509 22.7799C24.2181 22.5129 26.1656 19.6578 26.7573 19.5667ZM29.7736 18.3167C30.5979 18.4168 31.9204 18.2924 31.9204 18.2924C31.9204 18.2924 31.8147 18.3046 31.6245 18.3167C31.0991 18.3592 31.0569 18.6292 29.514 18.4138C28.2579 18.2408 27.5816 17.8525 27.5816 17.8525C27.5816 17.8525 28.1553 18.1256 29.7736 18.3167ZM30.4953 13.4895C30.5496 13.2316 30.6885 14.1084 30.9723 14.5453C31.2501 14.9762 31.7332 15.3615 31.7332 15.3615C31.7332 15.3615 30.9602 15.0763 30.6885 14.5878C30.3715 13.9992 30.4409 13.7474 30.4953 13.4895ZM38.8105 24.4304C38.5448 23.2289 37.3491 20.5528 36.4916 19.2148C35.6311 17.8768 34.6861 17.2093 33.2187 16.1382C31.7573 15.0702 32.023 13.4652 31.3618 13.0616C30.6945 12.6611 30.2598 12.8038 29.8461 13.4621C29.1728 14.5362 30.1571 16.9392 29.2271 17.3428C28.8044 17.5248 28.6957 17.7797 27.171 17.5551C26.4916 17.455 26.0931 17.3792 25.5134 17.6219C25.0907 17.7948 24.9397 17.716 25.148 17.361C25.6945 16.4265 26.2863 15.0126 26.5641 14.5423C27.1408 13.5744 27.8141 12.9099 28.2791 12.2819C28.6082 11.8419 28.7954 11.581 28.8226 11.0774C28.8437 10.6799 28.5448 10.4372 28.1281 10.4705C27.7145 10.5009 27.5424 10.8134 27.2495 11.0379C27.1408 11.1229 27.0261 11.2169 26.9023 11.3231C25.6976 12.3577 23.8135 14.424 23.1402 15.6103C22.6722 16.4356 22.4005 16.0715 21.7362 15.2674C21.072 14.4634 21.4524 12.8068 21.4524 11.3352C21.4524 9.86371 21.0387 9.41163 21.1776 8.44982C21.3105 7.51229 20.5768 6.91154 19.7797 7.44554C18.9826 7.97954 18.9826 9.72111 18.7169 10.2551C18.4512 10.7891 18.7169 14.5362 18.8497 15.6042C18.9826 16.6753 21.4645 19.9733 21.1384 20.7743C20.8153 21.5784 21.3618 23.0802 21.1686 23.6173C21.0961 23.8297 20.918 23.8114 20.6915 23.6688C20.3564 23.4656 20.2115 23.1197 19.8159 22.8011C19.5714 22.6039 19.0792 22.2368 18.892 22.0122C18.5689 21.6269 18.3636 21.1961 18.3817 20.5225C18.4059 19.4515 17.8111 17.9192 16.9898 17.7433C16.706 17.6826 16.1505 17.9556 16.1082 18.4108C16.0176 19.5334 16.3226 20.9503 17.1197 23.2259C17.9168 25.4984 18.584 25.4984 20.1813 26.2994C21.7785 27.1034 22.4427 27.1034 23.3666 27.2369C24.2906 27.3704 23.7742 28.308 25.5043 30.18C27.2344 32.052 27.6329 32.1856 28.2791 32.6467C28.9252 33.1079 27.2706 33.5388 26.6064 34.1911C23.3666 37.3678 20.7187 42.5075 20.7187 42.5075L21.9083 43.3662C21.9083 43.3662 22.9168 40.8964 24.3268 39.1549C25.7368 37.4133 26.6064 36.5971 26.6064 36.5971C26.6064 36.5971 27.7688 37.7744 29.0792 39.4674C30.3896 41.1604 31.1203 42.4317 31.1203 42.4317L33.2187 40.8782C33.2187 40.8782 34.5502 37.5347 34.8823 36.5971C35.2175 35.6626 38.0134 29.913 38.1432 28.842C38.2791 27.774 39.0732 25.6319 38.8105 24.4304Z" fill="#DC1F26"/>
<path d="M38.2852 24.8462L38.5448 25.098L38.3606 24.9008C38.3304 24.8826 38.3093 24.8644 38.2852 24.8462Z" fill="#DC1F26"/>
<path d="M2.83229 77.9092H2.56357V79.7752H1.89026V77.9092H1.62758V79.7752H0.951247V77.9092H0.685547V79.9997H2.83229V77.9092Z" fill="#767576"/>
<path d="M3.56648 77.9092V78.8407H3.648L4.36358 77.9092H4.68665L3.89861 78.868C4.24281 78.9165 4.37566 79.1259 4.48436 79.408C4.55984 79.6204 4.62023 79.8176 4.71382 79.9997H4.42095C4.34547 79.8571 4.2881 79.672 4.23073 79.5082C4.13713 79.229 4.00428 79.0439 3.65102 79.0439H3.56648V79.9997H3.30078V77.9092H3.56648Z" fill="#767576"/>
<path d="M5.0798 78.9683C5.0798 79.4112 5.32135 79.8148 5.74406 79.8148C6.16978 79.8148 6.41133 79.4173 6.41133 78.944C6.41133 78.5283 6.19695 78.0944 5.74708 78.0944C5.30323 78.0944 5.0798 78.5101 5.0798 78.9683ZM6.69514 78.9349C6.69514 79.654 6.26036 80.0362 5.72896 80.0362C5.17944 80.0362 4.79297 79.6054 4.79297 78.9743C4.79297 78.3068 5.2036 77.876 5.75915 77.876C6.32679 77.876 6.69514 78.3129 6.69514 78.9349Z" fill="#767576"/>
<path d="M8.39979 77.9092V79.9997H8.12805V78.1367H7.43964V78.7709C7.43964 79.2199 7.41851 79.7266 7.12563 79.9269C7.05015 79.9784 6.92938 80.027 6.8086 80.027L6.77539 79.8116C6.85691 79.7934 6.94749 79.7448 6.99278 79.6993C7.15884 79.5324 7.17696 79.1289 7.17696 78.7921V77.9092H8.39979Z" fill="#767576"/>
<path d="M9.8835 79.1319L9.68121 78.5312C9.63592 78.3946 9.6027 78.2702 9.57251 78.1489H9.56647C9.53326 78.2733 9.50307 78.4007 9.4608 78.5281L9.25548 79.1319H9.8835ZM9.20113 79.3413L8.98676 79.9997H8.70898L9.41852 77.9092H9.74159L10.4511 79.9997H10.1643L9.94087 79.3413H9.20113Z" fill="#767576"/>
<path d="M11.6768 77.9092V78.8407H11.7584L12.4739 77.9092H12.797L12.009 78.868C12.3532 78.9165 12.486 79.1259 12.5947 79.408C12.6702 79.6204 12.7306 79.8176 12.8212 79.9997H12.5313C12.4588 79.8571 12.3985 79.672 12.3411 79.5082C12.2445 79.229 12.1146 79.0439 11.7614 79.0439H11.6768V79.9997H11.4111V77.9092H11.6768Z" fill="#767576"/>
<path d="M13.3376 77.9092V78.7921C13.3376 79.1228 13.3316 79.3959 13.3135 79.675L13.3195 79.6781C13.4252 79.4626 13.555 79.2351 13.706 78.9863L14.3793 77.9092H14.648V79.9997H14.3944V79.1107C14.3944 78.7739 14.3974 78.5251 14.4185 78.2611L14.4095 78.2581C14.3068 78.4857 14.1649 78.7284 14.023 78.959L13.3708 79.9997H13.084V77.9092H13.3376Z" fill="#767576"/>
<path d="M16.4188 77.9092H14.8789V78.1398H15.5099V79.9997H15.7817V78.1398H16.4188V77.9092Z" fill="#767576"/>
<path d="M17.4187 79.1324L17.2164 78.5317C17.1681 78.3951 17.1409 78.2707 17.1077 78.1494H17.1016C17.0714 78.2738 17.0382 78.4012 16.996 78.5286L16.7937 79.1324H17.4187ZM16.7363 79.3418L16.5219 80.0002H16.2441L16.9507 77.9097H17.2737L17.9833 80.0002H17.6964L17.473 79.3418H16.7363Z" fill="#767576"/>
<path d="M18.8828 77.4727C18.8949 77.5667 18.9281 77.6638 19.073 77.6638C19.2149 77.6638 19.2481 77.5728 19.2632 77.4727H19.4686C19.4535 77.6759 19.3297 77.8034 19.067 77.8034C18.8134 77.8034 18.6926 77.6759 18.6775 77.4727H18.8828ZM18.5446 77.9096V78.7925C18.5446 79.1232 18.5386 79.3963 18.5205 79.6754L18.5265 79.6784C18.6322 79.463 18.762 79.2355 18.913 78.9867L19.5863 77.9096H19.852V80.0001H19.5984V79.1111C19.5984 78.7743 19.6014 78.5255 19.6225 78.2615L19.6135 78.2585C19.5108 78.486 19.3689 78.7288 19.23 78.9594L18.5779 80.0001H18.291V77.9096H18.5446Z" fill="#767576"/>
<path d="M21.7754 79.9331C21.6758 79.9847 21.4765 80.0332 21.2259 80.0332C20.6401 80.0332 20.1963 79.66 20.1963 78.9743C20.1963 78.319 20.6371 77.876 21.2832 77.876C21.5429 77.876 21.706 77.9336 21.7754 77.97L21.712 78.1885C21.6093 78.1369 21.4644 78.1005 21.2923 78.1005C20.8032 78.1005 20.4801 78.416 20.4801 78.9652C20.4801 79.4749 20.773 79.8026 21.2802 79.8026C21.4433 79.8026 21.6093 79.7693 21.718 79.7177L21.7754 79.9331Z" fill="#767576"/>
<path d="M22.379 77.9097V78.8411H22.4635L23.1761 77.9097H23.4992L22.7111 78.8684C23.0553 78.917 23.1882 79.1263 23.2969 79.4085C23.3723 79.6209 23.4297 79.8181 23.5233 80.0002H23.2335C23.161 79.8576 23.1006 79.6725 23.0432 79.5086C22.9496 79.2295 22.8168 79.0444 22.4635 79.0444H22.379V80.0002H22.1133V77.9097H22.379Z" fill="#767576"/>
<path d="M23.8923 78.9683C23.8923 79.4112 24.1339 79.8148 24.5566 79.8148C24.9823 79.8148 25.2238 79.4173 25.2238 78.944C25.2238 78.5283 25.0064 78.0944 24.5596 78.0944C24.1157 78.0944 23.8923 78.5101 23.8923 78.9683ZM25.5076 78.9349C25.5076 79.654 25.0729 80.0362 24.5415 80.0362C23.9919 80.0362 23.6055 79.6054 23.6055 78.9743C23.6055 78.3068 24.0161 77.876 24.5717 77.876C25.1393 77.876 25.5076 78.3129 25.5076 78.9349Z" fill="#767576"/>
<path d="M26.4493 77.4727C26.4614 77.5667 26.4946 77.6638 26.6395 77.6638C26.7814 77.6638 26.8146 77.5728 26.8297 77.4727H27.035C27.02 77.6759 26.8962 77.8034 26.6335 77.8034C26.3799 77.8034 26.2591 77.6759 26.244 77.4727H26.4493ZM26.1081 77.9096V78.7925C26.1081 79.1232 26.1021 79.3963 26.084 79.6754L26.09 79.6784C26.1957 79.463 26.3255 79.2355 26.4765 78.9867L27.1498 77.9096H27.4215V80.0001H27.1649V79.1111C27.1649 78.7743 27.1679 78.5255 27.189 78.2615L27.18 78.2585C27.0773 78.486 26.9354 78.7288 26.7935 78.9594L26.1413 80.0001H25.8545V77.9096H26.1081Z" fill="#767576"/>
<path d="M28.69 77.9097L29.3331 78.8411H29.4146V77.9097H29.6743V78.8411H29.7558L30.3989 77.9097H30.7129L29.9762 78.8715C30.3053 78.9049 30.4352 79.1112 30.5439 79.4085C30.6133 79.6057 30.6616 79.8121 30.7492 80.0002H30.4714C30.402 79.8606 30.3536 79.6603 30.2993 79.5117C30.2057 79.2234 30.1 79.0444 29.7619 79.0444H29.6743V80.0002H29.4146V79.0444H29.321C28.9889 79.0444 28.8832 79.2265 28.7836 79.5117C28.7323 79.6603 28.684 79.8606 28.6145 80.0002H28.3428C28.4303 79.809 28.4786 79.6057 28.5481 79.4116C28.6507 79.1172 28.7836 78.914 29.1097 78.8715L28.3699 77.9097H28.69Z" fill="#767576"/>
<path d="M31.2653 77.9097V78.7926C31.2653 79.1233 31.2593 79.3964 31.2412 79.6755L31.2472 79.6786C31.3529 79.4631 31.4827 79.2356 31.6367 78.9868L32.31 77.9097H32.5757V80.0002H32.3221V79.1112C32.3221 78.7744 32.3281 78.5256 32.3523 78.2616L32.3402 78.2586C32.2406 78.4861 32.0926 78.7289 31.9568 78.9595L31.3016 80.0002H31.0117V77.9097H31.2653Z" fill="#767576"/>
<path d="M33.3126 79.7969C33.3669 79.806 33.4424 79.8091 33.542 79.8091C33.8198 79.8091 34.0734 79.7089 34.0734 79.4025C34.0734 79.1173 33.8319 78.9989 33.536 78.9989H33.3126V79.7969ZM33.3126 78.7957H33.5602C33.844 78.7957 34.007 78.647 34.007 78.4437C34.007 78.201 33.8228 78.1039 33.5541 78.1039C33.4303 78.1039 33.3609 78.113 33.3126 78.1221V78.7957ZM33.0469 77.94C33.1646 77.9158 33.3488 77.8945 33.536 77.8945C33.8077 77.8945 33.9768 77.9431 34.1067 78.0493C34.2123 78.1282 34.2788 78.2526 34.2788 78.4164C34.2788 78.6166 34.1489 78.7957 33.9255 78.8745V78.8806C34.1248 78.9322 34.3573 79.096 34.3573 79.4055C34.3573 79.5876 34.2878 79.7211 34.1791 79.8273C34.0372 79.9608 33.8017 80.0214 33.4605 80.0214C33.2763 80.0214 33.1375 80.0093 33.0469 79.9972V77.94Z" fill="#767576"/>
<path d="M34.8582 78.9683C34.8582 79.4112 35.0998 79.8148 35.5255 79.8148C35.9512 79.8148 36.1928 79.4173 36.1928 78.944C36.1928 78.5283 35.9754 78.0944 35.5255 78.0944C35.0816 78.0944 34.8582 78.5101 34.8582 78.9683ZM36.4736 78.9349C36.4736 79.654 36.0358 80.0362 35.5074 80.0362C34.9579 80.0362 34.5684 79.6054 34.5684 78.9743C34.5684 78.3068 34.982 77.876 35.5345 77.876C36.1082 77.876 36.4736 78.3129 36.4736 78.9349Z" fill="#767576"/>
<path d="M38.3239 77.9092H36.8203V79.9997H37.0921V78.1367H38.0582V79.9997H38.3239V77.9092Z" fill="#767576"/>
<path d="M39.0515 77.9092V78.7921C39.0515 79.1228 39.0454 79.3959 39.0273 79.675L39.0334 79.6781C39.133 79.4626 39.2689 79.2351 39.4168 78.9863L40.0901 77.9092H40.3619V79.9997H40.1082V79.1107C40.1082 78.7739 40.1082 78.5251 40.1324 78.2611L40.1264 78.2581C40.0207 78.4857 39.8788 78.7284 39.7369 78.959L39.0877 79.9997H38.7979V77.9092H39.0515Z" fill="#767576"/>
<path d="M42.2823 79.9331C42.1827 79.9847 41.9864 80.0332 41.7328 80.0332C41.144 80.0332 40.7002 79.66 40.7002 78.9743C40.7002 78.319 41.141 77.876 41.7902 77.876C42.0498 77.876 42.2099 77.9336 42.2853 77.97L42.2159 78.1885C42.1163 78.1369 41.9744 78.1005 41.7962 78.1005C41.3131 78.1005 40.987 78.416 40.987 78.9652C40.987 79.4749 41.2769 79.8026 41.7841 79.8026C41.9502 79.8026 42.1132 79.7693 42.2219 79.7177L42.2823 79.9331Z" fill="#767576"/>
<path d="M42.8708 77.9092V78.7921C42.8708 79.1228 42.8648 79.3959 42.8467 79.675L42.8527 79.6781C42.9584 79.4626 43.0882 79.2351 43.2361 78.9863L43.9155 77.9092H44.1812V79.9997H43.9276V79.1107C43.9276 78.7739 43.9336 78.5251 43.9517 78.2611L43.9457 78.2581C43.84 78.4857 43.6981 78.7284 43.5562 78.959L42.907 79.9997H42.6172V77.9092H42.8708Z" fill="#767576"/>
<path d="M46.4106 77.9092H45.3086V79.9997H45.5743V78.1367H46.4106V77.9092Z" fill="#767576"/>
<path d="M46.848 77.9092L47.2617 78.8012C47.316 78.9256 47.3613 79.047 47.4096 79.1714H47.4156C47.4579 79.0621 47.4911 78.9408 47.5455 78.7921L47.8685 77.9092H48.1524L47.7206 78.9832C47.6028 79.2624 47.473 79.581 47.3311 79.7782C47.1952 79.9481 47.0413 80.0361 46.8601 80.0361C46.7906 80.0361 46.7423 80.03 46.7061 80.0179L46.7363 79.7964C46.7544 79.8055 46.7906 79.8085 46.8299 79.8085C47.0473 79.8055 47.1771 79.5961 47.2375 79.4475C47.2617 79.3989 47.2556 79.3686 47.2315 79.32L46.54 77.9092H46.848Z" fill="#767576"/>
<path d="M49.925 77.9097H49.6532V78.7865H48.6448V77.9097H48.373V80.0002H48.6448V79.0202H49.6532V80.0002H49.925V77.9097Z" fill="#767576"/>
<path d="M50.6554 79.7935C50.7188 79.8086 50.7912 79.8117 50.8788 79.8117C51.0509 79.8117 51.22 79.754 51.3196 79.6478C51.389 79.575 51.4313 79.4688 51.4313 79.3383C51.4313 79.1775 51.3679 79.0683 51.2592 78.9985C51.1535 78.9257 51.0116 78.8923 50.8637 78.8923C50.8033 78.8923 50.7218 78.8984 50.6523 78.9045V79.7935H50.6554ZM51.5581 77.9093V78.1368H50.6554V78.7012C50.7188 78.689 50.8456 78.683 50.915 78.683C51.1083 78.683 51.3045 78.7285 51.4525 78.8225C51.6125 78.9257 51.7182 79.0926 51.7182 79.3353C51.7182 79.5295 51.6547 79.6782 51.54 79.7874C51.3739 79.9573 51.0931 80.021 50.8093 80.021C50.6191 80.021 50.4802 80.0058 50.3896 79.9937V77.9062H51.5581V77.9093Z" fill="#767576"/>
<path d="M52.3191 77.9093V78.7922C52.3191 79.1229 52.313 79.396 52.2949 79.6752L52.3009 79.6782C52.4066 79.4628 52.5364 79.2352 52.6844 78.9864L53.3577 77.9093H53.6294V79.9998H53.3758V79.1108C53.3758 78.774 53.3819 78.5252 53.4 78.2613L53.3939 78.2582C53.2883 78.4858 53.1463 78.7285 53.0044 78.9591L52.3553 79.9998H52.0654V77.9093H52.3191Z" fill="#767576"/>
<path d="M9.78546 73.4403H5.65804V68.1883H8.98836V67.2568H1.35551V68.1883H4.68884V73.4403H0.597656V74.3748H9.78546V73.4403Z" fill="#DC1F26"/>
<path d="M18.1765 69.2045C18.0346 68.7251 17.8414 68.2457 17.5878 67.7633H16.9537C16.5612 68.5552 16.2925 69.0225 16.1536 69.162L15.438 68.6098C16.0268 67.7906 16.4344 66.8318 16.6608 65.7305L17.5032 65.8154C17.784 65.8731 17.7689 65.9823 17.4609 66.1522C17.4036 66.3767 17.3221 66.6468 17.2073 66.9562H20.4108V67.7633H18.4724C18.6959 68.1304 18.88 68.5704 19.0189 69.0771L18.1765 69.2045ZM15.8577 70.3059V71.1524L19.4416 70.6882L19.5262 71.4073L15.8607 71.8715V72.6786L20.3716 72.1688L20.4138 72.8879L15.8607 73.3976V74.3716C15.8607 74.5658 15.9875 74.6689 16.2381 74.6689H19.3178C19.5986 74.6689 19.7647 74.5688 19.8221 74.3716L19.9911 73.7799L20.8758 73.9893L20.7067 74.6234C20.5648 75.1908 20.1723 75.473 19.5231 75.473H15.8154C15.281 75.473 15.0123 75.2029 15.0123 74.6659V73.522L11.2623 73.9043L11.217 73.1852L15.0123 72.806V71.9595L11.851 72.3387L11.8088 71.6196L15.0123 71.2374V70.4333L12.4398 70.8126L12.2285 70.0935C14.6741 69.784 16.4857 69.4321 17.6663 69.0346L18.2973 69.6687C18.4664 69.9539 18.3818 70.0237 18.0467 69.8811L15.8577 70.3059ZM13.7109 69.2045C13.6536 68.6978 13.5268 68.2184 13.3305 67.7633H12.9078C12.5968 68.4156 12.2466 68.9648 11.8541 69.4169L11.1777 68.8252C11.9084 67.8907 12.4157 66.9016 12.6965 65.8579L13.5811 65.9429C13.8317 65.9975 13.8196 66.0976 13.5388 66.2372L13.2852 66.9562H15.9V67.7633H14.2967C14.4658 68.1304 14.5926 68.5704 14.6771 69.0771L13.7109 69.2045Z" fill="#DC1F26"/>
<path d="M27.1137 71.1131V72.4663H28.4211V71.1131H27.1137ZM28.4211 70.4334V69.2046H27.1137V70.4334H28.4211ZM26.3981 72.4663V71.1131H25.0908V72.4663H26.3981ZM26.3981 70.4334V69.2046H25.0908V70.4334H26.3981ZM30.1451 74.0743V68.1882H30.9483C31.1717 68.2185 31.1898 68.3004 30.9905 68.4431V75.3911H30.1451V74.8814H23.3637V75.4336H22.5183V68.1457H23.3184C23.5449 68.176 23.557 68.258 23.3607 68.4006V74.0743H30.1451ZM27.1137 68.525H29.1367V73.1429H24.3752V68.525H26.3981H27.1137ZM26.3981 67.2567H22.0986V66.4496H31.4978V67.2567H27.1137H26.3981Z" fill="#DC1F26"/>
<path d="M37.5306 65.8578C37.9503 66.3948 38.2311 66.8317 38.367 67.1716L37.4823 67.6358C37.2589 67.1291 37.0053 66.6891 36.7275 66.322L37.5306 65.8578ZM35.0397 67.6358C34.7861 67.1291 34.5324 66.7347 34.2788 66.4494L35.082 65.9852C35.3899 66.322 35.6707 66.7164 35.9243 67.1716L35.0397 67.6358ZM40.1001 67.6813H42.1653V70.0115H41.3229V68.4853H33.9044V70.1389H33.062V67.6813H39.1701L40.0548 65.8184L40.9455 66.2431C41.0512 66.3827 41.0089 66.4677 40.8157 66.495L40.1001 67.6813ZM37.2287 70.7306L37.9473 70.773L39.1671 70.054H34.6985V69.3743H39.8887L40.0125 69.2499L40.7311 69.9296C40.8126 70.0418 40.7432 70.0995 40.5198 70.0995C39.6774 70.6335 38.8621 71.0704 38.0711 71.4132V71.838H42.4582V72.642H38.0711V74.8053C38.0711 75.2544 37.8477 75.4819 37.3978 75.4819H36.2625L36.0904 74.5505H37.0626C37.1743 74.5505 37.2287 74.4928 37.2287 74.3806V72.642H32.8477V71.838H37.2287V70.7306Z" fill="#DC1F26"/>
<path d="M51.0571 68.8254C51.9598 69.332 52.6211 69.7841 53.0377 70.1786L52.449 70.9432C52.0021 70.5153 51.3801 70.0663 50.5981 69.5869L51.0571 68.8254ZM47.6029 68.4006V67.5935H49.6259V65.8155H50.429C50.6525 65.8428 50.6706 65.9278 50.4713 66.0674V67.5935H52.8777V68.4006H47.6029ZM49.5836 69.5444C49.8071 69.7143 49.7557 69.7841 49.4176 69.7538C48.9647 70.2059 48.3457 70.6731 47.5607 71.1525L47.0112 70.3454C47.7418 70.0087 48.385 69.5262 48.9526 68.9042L49.5836 69.5444ZM47.0957 75.6005L46.7183 74.669C47.926 74.2169 48.8409 73.6799 49.4598 73.0579C49.0945 72.5785 48.7292 72.0142 48.3638 71.3649L49.0371 70.8976C49.4025 71.5469 49.7165 72.0294 49.9641 72.3388C50.1362 72.1447 50.4019 71.5469 50.7672 70.5609L51.6519 71.0251C51.824 71.11 51.7636 71.195 51.4858 71.2799C51.2322 71.9019 50.9182 72.4663 50.5528 72.976C51.1476 73.4554 52.0323 73.9348 53.2129 74.4172L52.7056 75.3517C51.4133 74.76 50.5287 74.2048 50.0516 73.6981C49.5414 74.2867 48.5571 74.9239 47.0957 75.6005ZM45.9151 75.558H45.0728V70.9432C44.8191 71.5924 44.4417 72.2569 43.9345 72.9335L43.3457 72.1689C44.2424 71.0402 44.8071 69.8812 45.0335 68.6949H43.5601V67.8878H45.0758V65.8125H45.8789C46.1023 65.8398 46.1144 65.9248 45.9212 66.0643V67.8878H47.0172V68.6949H45.9212V70.1755C46.5945 70.6549 47.0897 71.0949 47.3946 71.4893L46.7998 72.2964C46.516 71.9019 46.2231 71.5348 45.9151 71.195V75.558Z" fill="#DC1F26"/>
<path d="M59.0069 45.657C58.8227 45.7844 58.08 45.3718 57.7931 44.6254C57.2497 43.2055 55.3747 41.7916 55.5588 41.6641C55.743 41.5367 57.9652 43.4634 58.4544 44.1582C58.9405 44.859 59.185 45.5296 59.0069 45.657ZM58.1524 43.1691C55.5649 39.5585 53.554 38.3327 52.609 37.8442C51.6639 37.3527 51.0691 37.1494 51.0691 37.1494L49.0703 38.9547C49.0703 38.9547 49.8734 40.9602 52.0655 42.365C54.2575 43.7698 57.926 45.8512 59.0522 46.276C59.647 46.5005 60.0003 47.2529 60.0003 46.8039C59.9972 46.3973 59.9972 45.7359 58.1524 43.1691Z" fill="#DC1F26"/>
</g>
<defs>
<clipPath id="clip0_44_3075">
<rect width="60" height="80" fill="white"/>
</clipPath>
</defs>
</svg>
