<svg width="109" height="45" viewBox="0 0 109 45" fill="none" xmlns="http://www.w3.org/2000/svg">
<g clip-path="url(#clip0_44_3074)">
<path d="M109.18 0.118652H56.807V9.58303H109.18V0.118652Z" fill="white"/>
<path d="M109.18 18.9806H56.8069V28.1738H109.18V18.9806Z" fill="#D32E27"/>
<path d="M109.18 9.58643H56.807V18.9807H109.18V9.58643Z" fill="#1E439B"/>
<path d="M56.7707 0.119141H1.59375V28.171H56.7707V0.119141Z" fill="#DD2E26"/>
<path d="M8.88578 2.76367L9.8944 5.759H13.1634L10.5218 7.60861L11.5304 10.6009L8.88578 8.75128L6.24416 10.6009L7.25278 7.60861L4.60815 5.759H7.87716L8.88578 2.76367Z" fill="#FDDD00"/>
<path d="M16.7502 1.62415L16.6482 2.6236L17.5998 3.02582L16.5821 3.23912L16.4801 4.24468L15.9518 3.3732L14.9371 3.58954L15.6306 2.83995L15.1022 1.97152L16.0568 2.37374L16.7502 1.62415Z" fill="#FDDD00"/>
<path d="M20.1358 4.75971L19.6495 5.64643L20.379 6.36555L19.3494 6.19491L18.8661 7.08467L18.713 6.09131L17.6893 5.92067L18.6229 5.47883L18.4728 4.48242L19.1993 5.20154L20.1358 4.75971Z" fill="#FDDD00"/>
<path d="M19.0735 8.55957L19.4277 9.50418L20.4724 9.47066L19.6468 10.0923L20.0011 11.0399L19.1365 10.4762L18.314 11.0948L18.6022 10.1227L17.7377 9.55903L18.7823 9.52551L19.0735 8.55957Z" fill="#FDDD00"/>
<path d="M16.6933 11.4389L16.6363 12.4475L17.6119 12.8071L16.6002 13.0691L16.5462 14.0747L15.9759 13.2276L14.9642 13.4866L15.6246 12.7065L15.0573 11.8594L16.0329 12.222L16.6933 11.4389Z" fill="#FDDD00"/>
<path d="M1.49769 34.1154C1.49769 34.5786 1.60276 34.9381 1.81589 35.1758C2.02602 35.4196 2.29618 35.5384 2.62639 35.5384C2.95059 35.5384 3.21775 35.4196 3.43088 35.1819C3.64101 34.9412 3.74307 34.5816 3.74307 34.1032C3.74307 33.6309 3.64101 33.2775 3.43689 33.0428C3.23276 32.8112 2.96259 32.6954 2.62339 32.6954C2.28418 32.6954 2.01101 32.8143 1.80688 33.0489C1.59976 33.2866 1.49769 33.6401 1.49769 34.1154ZM0.654175 34.1459C0.654175 33.7223 0.717214 33.3689 0.840289 33.0855C0.930345 32.8752 1.05642 32.6863 1.21852 32.5187C1.37762 32.3481 1.55173 32.2262 1.74384 32.147C1.996 32.0373 2.29018 31.9824 2.61738 31.9824C3.21475 31.9824 3.69504 32.1713 4.05527 32.5492C4.41248 32.927 4.5926 33.4511 4.5926 34.1215C4.5926 34.7888 4.41549 35.3099 4.05827 35.6877C3.70405 36.0625 3.22676 36.2514 2.62639 36.2514C2.02302 36.2514 1.54572 36.0625 1.1885 35.6877C0.828282 35.316 0.654175 34.801 0.654175 34.1459Z" fill="black"/>
<path d="M6.06933 35.4866H6.86482C7.11998 35.4866 7.30009 35.4714 7.40515 35.447C7.50722 35.4226 7.59727 35.3647 7.67532 35.2733C7.75337 35.1819 7.78939 35.0722 7.78939 34.9412C7.78939 34.7492 7.72335 34.6151 7.58827 34.5237C7.45618 34.4384 7.22804 34.3927 6.90384 34.3927H6.06933V35.4866ZM5.24683 32.0586H8.28469V32.7503H6.06933V33.7071H7.162C7.46819 33.7071 7.72035 33.7437 7.91847 33.8168C8.11659 33.893 8.28769 34.0331 8.42878 34.2373C8.56987 34.4414 8.63891 34.6791 8.63891 34.9442C8.63891 35.2246 8.56987 35.4622 8.42578 35.6633C8.28469 35.8584 8.12259 35.9955 7.94248 36.0717C7.75637 36.1417 7.50121 36.1814 7.162 36.1814H5.24683V32.0586Z" fill="black"/>
<path d="M9.32361 32.0591H10.1431V35.4871H11.3198V32.0591H12.1363V35.4871H13.3491V32.0591H14.1686V35.4871H14.5318V37.0808H13.8504V36.1818H9.32361V32.0591Z" fill="black"/>
<path d="M15.0901 36.1814V32.0586H18.1039V32.7533H15.9126V33.6675H17.9508V34.3622H15.9126V35.4866H18.182V36.1814H15.0901Z" fill="black"/>
<path d="M21.4751 34.6639L22.2705 34.9199C22.1475 35.3678 21.9494 35.706 21.6642 35.9224C21.379 36.1387 21.0188 36.2484 20.5865 36.2484C20.0462 36.2484 19.6019 36.0595 19.2567 35.6847C18.9115 35.3129 18.7344 34.801 18.7344 34.152C18.7344 33.4633 18.9115 32.9331 19.2597 32.5522C19.6079 32.1744 20.0702 31.9824 20.6375 31.9824C21.1328 31.9824 21.5381 32.1317 21.8473 32.4273C22.0334 32.604 22.1685 32.8569 22.2615 33.1891L21.448 33.3841C21.4 33.1708 21.301 33.0002 21.1479 32.8752C20.9948 32.7533 20.8117 32.6894 20.5925 32.6894C20.2893 32.6894 20.0462 32.7991 19.8571 33.0184C19.6709 33.2348 19.5749 33.5913 19.5749 34.0849C19.5749 34.606 19.6679 34.9777 19.8541 35.1971C20.0402 35.4196 20.2803 35.5293 20.5745 35.5293C20.7906 35.5293 20.9798 35.4592 21.1389 35.319C21.2949 35.188 21.409 34.9686 21.4751 34.6639Z" fill="black"/>
<path d="M23.747 36.1814V32.7533H22.5432V32.0586H25.7702V32.7533H24.5695V36.1814H23.747Z" fill="black"/>
<path d="M27.1221 34.3836V35.4836H27.8816C28.1788 35.4836 28.3649 35.4744 28.4459 35.4592C28.569 35.4348 28.6651 35.383 28.7431 35.2916C28.8212 35.2063 28.8602 35.0905 28.8602 34.9412C28.8602 34.8193 28.8302 34.7157 28.7701 34.6273C28.7101 34.542 28.629 34.475 28.515 34.4384C28.4039 34.3957 28.1608 34.3775 27.7885 34.3775H27.1221V34.3836ZM27.1221 32.7412V33.6949H27.6594C27.9806 33.6949 28.1788 33.6888 28.2568 33.6797C28.3979 33.6614 28.506 33.6157 28.584 33.5304C28.6651 33.4511 28.7071 33.3414 28.7071 33.2104C28.7071 33.0824 28.6711 32.9819 28.602 32.8996C28.536 32.8204 28.4279 32.7716 28.2928 32.7533C28.2118 32.7442 27.9806 32.7381 27.5934 32.7381H27.1221V32.7412ZM26.3026 32.0586H27.9266C28.2478 32.0586 28.488 32.0708 28.6441 32.0982C28.8031 32.1287 28.9442 32.1835 29.0703 32.2719C29.1934 32.3572 29.2985 32.47 29.3825 32.6132C29.4636 32.7594 29.5056 32.9209 29.5056 33.0946C29.5056 33.2866 29.4515 33.4664 29.3525 33.6279C29.2474 33.7894 29.1093 33.9113 28.9322 33.9935C29.1784 34.0636 29.3705 34.1885 29.5026 34.3622C29.6347 34.542 29.7007 34.7492 29.7007 34.9869C29.7007 35.1758 29.6557 35.3556 29.5716 35.5354C29.4846 35.7121 29.3705 35.8523 29.2204 35.9589C29.0703 36.0656 28.8902 36.1326 28.6711 36.1539C28.533 36.1692 28.2028 36.1783 27.6805 36.1844H26.3026V32.0586Z" fill="black"/>
<path d="M30.9368 34.1154C30.9368 34.5786 31.0419 34.9381 31.252 35.1758C31.4651 35.4196 31.7353 35.5384 32.0625 35.5384C32.3897 35.5384 32.6569 35.4196 32.87 35.1819C33.0771 34.9412 33.1822 34.5816 33.1822 34.1032C33.1822 33.6309 33.0801 33.2775 32.873 33.0428C32.6719 32.8112 32.4017 32.6954 32.0595 32.6954C31.7233 32.6954 31.4501 32.8143 31.246 33.0489C31.0389 33.2866 30.9368 33.6401 30.9368 34.1154ZM30.0873 34.1459C30.0873 33.7223 30.1503 33.3689 30.2764 33.0855C30.3665 32.8752 30.4925 32.6863 30.6516 32.5187C30.8137 32.3481 30.9878 32.2262 31.1769 32.147C31.4321 32.0373 31.7263 31.9824 32.0535 31.9824C32.6509 31.9824 33.1312 32.1713 33.4914 32.5492C33.8516 32.927 34.0317 33.4511 34.0317 34.1215C34.0317 34.7888 33.8546 35.3099 33.4974 35.6877C33.1402 36.0625 32.6659 36.2514 32.0655 36.2514C31.4621 36.2514 30.9818 36.0625 30.6276 35.6877C30.2674 35.316 30.0873 34.801 30.0873 34.1459Z" fill="black"/>
<path d="M37.0671 32.7535V33.9266H37.5144C37.8386 33.9266 38.0547 33.9022 38.1628 33.8626C38.2739 33.8169 38.3549 33.7499 38.421 33.6585C38.484 33.5701 38.511 33.4634 38.511 33.3416C38.511 33.1892 38.466 33.0673 38.3819 32.9698C38.2949 32.8723 38.1868 32.8114 38.0547 32.7839C37.9557 32.7656 37.7576 32.7565 37.4634 32.7565H37.0671V32.7535ZM36.2446 36.1815V32.0557H37.5594C38.0577 32.0557 38.3819 32.0739 38.535 32.1197C38.7662 32.1806 38.9643 32.3116 39.1174 32.5219C39.2765 32.7291 39.3545 32.9972 39.3545 33.3263C39.3545 33.5792 39.3065 33.7925 39.2165 33.9662C39.1294 34.1369 39.0123 34.274 38.8742 34.3745C38.7332 34.469 38.5921 34.536 38.445 34.5665C38.2529 34.6061 37.9677 34.6274 37.5955 34.6274H37.0611V36.1845H36.2446V36.1815Z" fill="black"/>
<path d="M40.6327 34.1154C40.6327 34.5786 40.7408 34.9381 40.9509 35.1758C41.164 35.4196 41.4342 35.5384 41.7614 35.5384C42.0886 35.5384 42.3558 35.4196 42.5689 35.1819C42.776 34.9412 42.8811 34.5816 42.8811 34.1032C42.8811 33.6309 42.779 33.2775 42.5749 33.0428C42.3708 32.8112 42.0976 32.6954 41.7614 32.6954C41.4252 32.6954 41.152 32.8143 40.9449 33.0489C40.7378 33.2835 40.6327 33.6401 40.6327 34.1154ZM39.7892 34.1459C39.7892 33.7223 39.8522 33.3689 39.9753 33.0855C40.0684 32.8752 40.1944 32.6863 40.3535 32.5187C40.5156 32.3481 40.6897 32.2262 40.8819 32.147C41.134 32.0373 41.4282 31.9824 41.7554 31.9824C42.3528 31.9824 42.8331 32.1713 43.1933 32.5492C43.5535 32.927 43.7336 33.4511 43.7336 34.1215C43.7336 34.7888 43.5535 35.3099 43.1993 35.6877C42.8421 36.0625 42.3648 36.2514 41.7674 36.2514C41.164 36.2514 40.6837 36.0625 40.3295 35.6877C39.9663 35.316 39.7892 34.801 39.7892 34.1459Z" fill="black"/>
<path d="M46.9677 34.6639L47.7632 34.9199C47.6431 35.3678 47.442 35.706 47.1568 35.9224C46.8717 36.1387 46.5115 36.2484 46.0792 36.2484C45.5359 36.2484 45.0946 36.0595 44.7494 35.6847C44.4042 35.3129 44.2271 34.801 44.2271 34.152C44.2271 33.4633 44.4042 32.9331 44.7524 32.5522C45.1006 32.1744 45.5629 31.9824 46.1302 31.9824C46.6255 31.9824 47.0278 32.1317 47.34 32.4273C47.5231 32.604 47.6612 32.8569 47.7542 33.1891L46.9437 33.3841C46.8927 33.1708 46.7936 33.0002 46.6405 32.8752C46.4874 32.7533 46.3043 32.6894 46.0852 32.6894C45.782 32.6894 45.5389 32.7991 45.3497 33.0184C45.1606 33.2348 45.0706 33.5913 45.0706 34.0849C45.0706 34.606 45.1606 34.9777 45.3467 35.1971C45.5329 35.4196 45.773 35.5293 46.0672 35.5293C46.2833 35.5293 46.4724 35.4592 46.6315 35.319C46.7876 35.188 46.9017 34.9686 46.9677 34.6639Z" fill="black"/>
<path d="M51.0678 34.6639L51.8633 34.9199C51.7432 35.3678 51.5391 35.706 51.2539 35.9224C50.9718 36.1387 50.6115 36.2484 50.1763 36.2484C49.636 36.2484 49.1947 36.0595 48.8495 35.6847C48.5013 35.3129 48.3271 34.801 48.3271 34.152C48.3271 33.4633 48.5043 32.9331 48.8525 32.5522C49.2007 32.1744 49.663 31.9824 50.2273 31.9824C50.7256 31.9824 51.1279 32.1317 51.4401 32.4273C51.6232 32.604 51.7613 32.8569 51.8543 33.1891L51.0408 33.3841C50.9928 33.1708 50.8937 33.0002 50.7406 32.8752C50.5875 32.7533 50.4044 32.6894 50.1823 32.6894C49.8821 32.6894 49.6359 32.7991 49.4498 33.0184C49.2607 33.2348 49.1677 33.5913 49.1677 34.0849C49.1677 34.606 49.2607 34.9777 49.4468 35.1971C49.6329 35.4196 49.8731 35.5293 50.1673 35.5293C50.3834 35.5293 50.5725 35.4592 50.7316 35.319C50.8847 35.188 50.9988 34.9686 51.0678 34.6639Z" fill="black"/>
<path d="M52.5771 32.0586H53.3456V34.801L54.9876 32.0586H55.8071V36.1814H55.0387V33.4877L53.3967 36.1814H52.5771V32.0586Z" fill="black"/>
<path d="M58.7583 31.0322H59.1396C59.1156 31.2882 59.0285 31.4862 58.8754 31.6295C58.7193 31.7757 58.5212 31.8489 58.2751 31.8489C58.0289 31.8489 57.8308 31.7757 57.6747 31.6295C57.5216 31.4862 57.4345 31.2882 57.4105 31.0322H57.7918C57.8038 31.1633 57.8518 31.2638 57.9298 31.3339C58.0079 31.404 58.122 31.4375 58.2751 31.4375C58.4251 31.4375 58.5422 31.4009 58.6203 31.3339C58.6983 31.2669 58.7463 31.1633 58.7583 31.0322ZM56.6541 32.0591H57.4225V34.8015L59.0675 32.0591H59.884V36.1849H59.1156V33.4882L57.4736 36.1819H56.6541V32.0591Z" fill="black"/>
<path d="M63.3216 34.6644L64.1171 34.9203C63.997 35.3683 63.7929 35.7065 63.5107 35.9228C63.2256 36.1392 62.8653 36.2489 62.4331 36.2489C61.8927 36.2489 61.4485 36.06 61.1033 35.6852C60.758 35.3134 60.5809 34.8015 60.5809 34.1525C60.5809 33.4638 60.758 32.9336 61.1063 32.5527C61.4545 32.1749 61.9168 31.9829 62.4841 31.9829C62.9794 31.9829 63.3847 32.1322 63.6939 32.4278C63.88 32.6045 64.015 32.8574 64.1081 33.1896L63.2946 33.3846C63.2466 33.1713 63.1475 33.0006 62.9944 32.8757C62.8413 32.7538 62.6582 32.6898 62.4391 32.6898C62.1359 32.6898 61.8927 32.7995 61.7036 33.0189C61.5175 33.2353 61.4245 33.5918 61.4245 34.0854C61.4245 34.6065 61.5145 34.9782 61.7006 35.1976C61.8867 35.4201 62.1269 35.5298 62.4211 35.5298C62.6372 35.5298 62.8263 35.4597 62.9854 35.3195C63.1385 35.1885 63.2526 34.9691 63.3216 34.6644Z" fill="black"/>
<path d="M64.8339 32.0593H65.6534V33.8114C65.8366 33.7931 65.9596 33.7474 66.0227 33.6682C66.0887 33.592 66.1878 33.3787 66.3228 33.0283C66.494 32.5834 66.6651 32.3031 66.8362 32.1964C67.0073 32.0898 67.2804 32.0319 67.6587 32.0319C67.6767 32.0319 67.7187 32.0319 67.7787 32.0288V32.6443L67.6617 32.6413C67.4936 32.6413 67.3705 32.6626 67.2924 32.7053C67.2174 32.751 67.1514 32.8119 67.1033 32.8972C67.0553 32.9826 66.9833 33.1623 66.8902 33.4305C66.8392 33.5737 66.7881 33.6925 66.7281 33.787C66.6681 33.8845 66.566 33.9759 66.4189 34.0582C66.602 34.113 66.7491 34.2166 66.8692 34.3751C66.9893 34.5366 67.1183 34.7621 67.2624 35.0546L67.8178 36.1851H66.8542L66.3709 35.1186C66.3619 35.1003 66.3469 35.0698 66.3198 35.0302C66.3138 35.015 66.2778 34.9541 66.2178 34.8352C66.1127 34.6372 66.0287 34.5092 65.9596 34.4604C65.8936 34.4056 65.7885 34.3842 65.6504 34.3781V36.1881H64.8309V32.0593H64.8339Z" fill="black"/>
<path d="M68.9619 34.1159C68.9619 34.5791 69.0699 34.9386 69.2801 35.1763C69.4902 35.4201 69.7604 35.5389 70.0906 35.5389C70.4148 35.5389 70.6849 35.4201 70.8981 35.1824C71.1052 34.9417 71.2103 34.5821 71.2103 34.1037C71.2103 33.6314 71.1082 33.2779 70.9011 33.0433C70.6999 32.8117 70.4268 32.6959 70.0876 32.6959C69.7484 32.6959 69.4782 32.8148 69.2711 33.0494C69.0639 33.284 68.9619 33.6405 68.9619 34.1159ZM68.1154 34.1464C68.1154 33.7228 68.1784 33.3694 68.3015 33.086C68.3945 32.8757 68.5206 32.6868 68.6797 32.5192C68.8418 32.3486 69.0159 32.2267 69.205 32.1475C69.4602 32.0378 69.7514 31.9829 70.0816 31.9829C70.6789 31.9829 71.1592 32.1718 71.5194 32.5497C71.8797 32.9275 72.0598 33.4516 72.0598 34.122C72.0598 34.7893 71.8797 35.3104 71.5254 35.6882C71.1682 36.063 70.6909 36.2519 70.0936 36.2519C69.4902 36.2519 69.0099 36.063 68.6527 35.6882C68.2955 35.3165 68.1154 34.8015 68.1154 34.1464Z" fill="black"/>
<path d="M74.1335 34.2891H72.6025V35.0813H74.1335V34.2891Z" fill="black"/>
<path d="M74.6017 32.0588H75.4182V33.8109C75.6013 33.7926 75.7274 33.7469 75.7904 33.6677C75.8535 33.5885 75.9555 33.3782 76.0906 33.0278C76.2617 32.5829 76.4298 32.3026 76.6039 32.1959C76.775 32.0893 77.0482 32.0314 77.4264 32.0314C77.4444 32.0314 77.4835 32.0314 77.5435 32.0283V32.6438L77.4264 32.6408C77.2583 32.6408 77.1352 32.6621 77.0602 32.7048C76.9822 32.7505 76.9191 32.8114 76.8711 32.8968C76.8231 32.9821 76.754 33.1619 76.661 33.43C76.6099 33.5732 76.5559 33.6921 76.4959 33.7865C76.4388 33.884 76.3368 33.9754 76.1867 34.0577C76.3698 34.1126 76.5199 34.2162 76.6399 34.3746C76.757 34.5361 76.8891 34.7616 77.0302 35.0541L77.5855 36.1846H76.6219L76.1386 35.1181C76.1326 35.0998 76.1146 35.0694 76.0906 35.0297C76.0816 35.0145 76.0456 34.9536 75.9885 34.8347C75.8835 34.6367 75.7994 34.5087 75.7304 34.4599C75.6643 34.4051 75.5563 34.3838 75.4182 34.3777V36.1877H74.6017V32.0588Z" fill="black"/>
<path d="M78.0602 32.0586H78.8287V34.801L80.4737 32.0586H81.2902V36.1814H80.5217V33.4877L78.8797 36.1814H78.0602V32.0586Z" fill="black"/>
<path d="M83.0399 36.1814V32.7533H81.8362V32.0586H85.0632V32.7533H83.8624V36.1814H83.0399Z" fill="black"/>
<path d="M87.3869 34.5513L86.8256 33.0186L86.2763 34.5513H87.3869ZM88.8969 36.1815H88.0053L87.6511 35.2399H86.0271L85.6939 36.1815H84.8234L86.4053 32.0557H87.2699L88.8969 36.1815Z" fill="black"/>
<path d="M91.4507 31.0322H91.8289C91.8079 31.2882 91.7178 31.4862 91.5647 31.6295C91.4087 31.7757 91.2105 31.8489 90.9644 31.8489C90.7212 31.8489 90.5201 31.7757 90.367 31.6295C90.2109 31.4862 90.1239 31.2882 90.0998 31.0322H90.4811C90.4931 31.1633 90.5411 31.2638 90.6192 31.3339C90.6972 31.404 90.8113 31.4375 90.9644 31.4375C91.1175 31.4375 91.2315 31.4009 91.3096 31.3339C91.3906 31.2638 91.4357 31.1633 91.4507 31.0322ZM89.3434 32.0591H90.1119V34.8015L91.7599 32.0591H92.5734V36.1849H91.8079V33.4882L90.1629 36.1819H89.3434V32.0591Z" fill="black"/>
<path d="M96.007 34.6644L96.8055 34.9203C96.6824 35.3683 96.4813 35.7065 96.1961 35.9228C95.9139 36.1392 95.5537 36.2489 95.1184 36.2489C94.5781 36.2489 94.1368 36.06 93.7886 35.6852C93.4434 35.3134 93.2693 34.8015 93.2693 34.1525C93.2693 33.4638 93.4434 32.9336 93.7916 32.5527C94.1398 32.1749 94.6021 31.9829 95.1695 31.9829C95.6648 31.9829 96.07 32.1322 96.3792 32.4278C96.5653 32.6045 96.7004 32.8574 96.7965 33.1896L95.983 33.3846C95.9349 33.1713 95.8329 33.0006 95.6798 32.8757C95.5267 32.7538 95.3436 32.6898 95.1244 32.6898C94.8212 32.6898 94.5781 32.7995 94.392 33.0189C94.2029 33.2353 94.1098 33.5918 94.1098 34.0854C94.1098 34.6065 94.2029 34.9782 94.389 35.1976C94.5751 35.4201 94.8122 35.5298 95.1064 35.5298C95.3226 35.5298 95.5117 35.4597 95.6708 35.3195C95.8299 35.1793 95.9409 34.9691 96.007 34.6644Z" fill="black"/>
<path d="M97.5204 32.0588H98.3399V33.8109C98.523 33.7926 98.6491 33.7469 98.7121 33.6677C98.7752 33.5885 98.8772 33.3782 99.0123 33.0278C99.1834 32.5829 99.3515 32.3026 99.5256 32.1959C99.6937 32.0893 99.9669 32.0314 100.345 32.0314C100.366 32.0314 100.405 32.0314 100.465 32.0283V32.6438L100.348 32.6408C100.18 32.6408 100.057 32.6621 99.9819 32.7048C99.9039 32.7505 99.8408 32.8114 99.7928 32.8968C99.7448 32.9821 99.6757 33.1619 99.5827 33.43C99.5286 33.5732 99.4776 33.6921 99.4176 33.7865C99.3605 33.884 99.2555 33.9754 99.1084 34.0577C99.2915 34.1126 99.4416 34.2162 99.5617 34.3746C99.6787 34.5361 99.8108 34.7616 99.9519 35.0541L100.507 36.1846H99.5436L99.0603 35.1151C99.0513 35.0968 99.0363 35.0663 99.0123 35.0267C99.0033 35.0115 98.9673 34.9505 98.9103 34.8317C98.8052 34.6336 98.7211 34.5056 98.6521 34.4569C98.583 34.402 98.478 34.3807 98.3399 34.3746V36.1846H97.5204V32.0588Z" fill="black"/>
<path d="M101.651 34.1159C101.651 34.5791 101.756 34.9386 101.966 35.1763C102.18 35.4201 102.45 35.5389 102.777 35.5389C103.104 35.5389 103.371 35.4201 103.584 35.1824C103.792 34.9417 103.897 34.5821 103.897 34.1037C103.897 33.6345 103.795 33.2779 103.59 33.0433C103.386 32.8117 103.116 32.699 102.777 32.699C102.441 32.699 102.168 32.8148 101.963 33.0494C101.753 33.2901 101.651 33.6405 101.651 34.1159ZM100.805 34.1464C100.805 33.7228 100.868 33.3724 100.994 33.086C101.084 32.8788 101.21 32.6868 101.369 32.5192C101.531 32.3516 101.705 32.2267 101.897 32.1475C102.15 32.0378 102.444 31.9829 102.771 31.9829C103.368 31.9829 103.849 32.1749 104.209 32.5497C104.566 32.9275 104.746 33.4516 104.746 34.122C104.746 34.7893 104.569 35.3104 104.212 35.6882C103.855 36.063 103.38 36.2519 102.78 36.2519C102.177 36.2519 101.696 36.063 101.342 35.6882C100.985 35.3165 100.805 34.8015 100.805 34.1464Z" fill="black"/>
<path d="M107.505 31.0322H107.883C107.862 31.2882 107.772 31.4862 107.619 31.6295C107.463 31.7788 107.265 31.8489 107.018 31.8489C106.775 31.8489 106.574 31.7788 106.421 31.6295C106.265 31.4862 106.178 31.2882 106.157 31.0322H106.535C106.547 31.1663 106.595 31.2669 106.673 31.3339C106.751 31.404 106.865 31.4375 107.018 31.4375C107.171 31.4375 107.286 31.404 107.364 31.3339C107.445 31.2669 107.49 31.1663 107.505 31.0322ZM105.394 32.0591H106.163V34.8015L107.808 32.0591H108.624V36.1849H107.859V33.4882L106.214 36.1819H105.394V32.0591Z" fill="black"/>
<path d="M43.2259 40.6703C43.2259 41.9226 43.1148 42.8368 42.8927 43.4066H44.4356V40.6703H43.2259ZM42.4454 39.9786H45.2551V43.4066H45.6123V44.9972H44.9279V44.0952H42.3703V44.9972H41.6859V43.4066H42.0311C42.1992 43.0562 42.3103 42.6448 42.3613 42.1817C42.4184 41.7185 42.4394 41.1273 42.4394 40.4143V39.9786H42.4454Z" fill="black"/>
<path d="M46.981 40.6763V41.8464H47.4283C47.7495 41.8464 47.9686 41.8251 48.0767 41.7824C48.1847 41.7398 48.2688 41.6727 48.3318 41.5844C48.3949 41.4899 48.4249 41.3832 48.4249 41.2644C48.4249 41.112 48.3799 40.9902 48.2958 40.8896C48.2088 40.7951 48.0977 40.7342 47.9656 40.7068C47.8696 40.6885 47.6714 40.6794 47.3772 40.6794H46.981V40.6763ZM46.1615 44.1013V39.9785H47.4763C47.9746 39.9785 48.2988 39.9968 48.4519 40.0395C48.6831 40.1034 48.8782 40.2345 49.0343 40.4447C49.1904 40.6519 49.2684 40.9201 49.2684 41.2492C49.2684 41.499 49.2234 41.7123 49.1333 41.886C49.0433 42.0597 48.9292 42.1968 48.7881 42.2913C48.65 42.3918 48.5059 42.4589 48.3619 42.4863C48.1667 42.529 47.8846 42.5472 47.5123 42.5472H46.978V44.1043H46.1615V44.1013Z" fill="black"/>
<path d="M49.4603 39.9785H50.3789L51.3245 42.1146L52.135 39.9785H52.9875L51.6187 43.1079C51.4686 43.4461 51.3155 43.7052 51.1624 43.8819C51.0063 44.0617 50.8082 44.15 50.562 44.15C50.3189 44.15 50.1297 44.1318 49.9947 44.1013V43.4827C50.1117 43.4888 50.2138 43.4949 50.3099 43.4949C50.499 43.4949 50.6341 43.4583 50.7181 43.3883C50.7992 43.3212 50.8802 43.1689 50.9553 42.9373L49.4603 39.9785Z" fill="black"/>
<path d="M55.9541 39.9788V41.7309C56.0922 41.7187 56.1942 41.6669 56.2663 41.5755C56.3383 41.4841 56.4344 41.2739 56.5575 40.9478C56.7196 40.5151 56.8847 40.2439 57.0558 40.1251C57.2239 40.0063 57.5031 39.9484 57.8963 39.9484C57.9143 39.9484 57.9533 39.9453 58.0134 39.9453V40.5608L57.8963 40.5578C57.7282 40.5578 57.6051 40.5822 57.5301 40.6218C57.452 40.6675 57.389 40.7284 57.341 40.8137C57.2899 40.8991 57.2209 41.0758 57.1278 41.347C57.0768 41.4872 57.0228 41.606 56.9657 41.7005C56.9027 41.7949 56.8006 41.8894 56.6535 41.9747C56.8366 42.0295 56.9867 42.1362 57.1068 42.2916C57.2239 42.4531 57.356 42.6786 57.497 42.9681L58.0524 44.0955H57.0918L56.6025 43.0321C56.5965 43.0168 56.5815 42.9863 56.5545 42.9467C56.5395 42.9163 56.5064 42.8523 56.4554 42.7517C56.3533 42.5567 56.2663 42.4318 56.2003 42.3769C56.1342 42.3221 56.0502 42.2946 55.9541 42.2946V44.0985H55.1526V42.2946C55.0565 42.2946 54.9755 42.3221 54.9095 42.3708C54.8404 42.4257 54.7534 42.5537 54.6543 42.7517C54.5943 42.8645 54.5612 42.9315 54.5522 42.9467C54.5342 42.9742 54.5192 43.0016 54.5042 43.0321L54.0149 44.0955H53.0543L53.6067 42.9681C53.7447 42.6877 53.8738 42.4653 53.9939 42.3038C54.117 42.1362 54.2701 42.0295 54.4562 41.9777C54.3061 41.8924 54.204 41.798 54.144 41.7096C54.084 41.6121 54.0299 41.4963 53.9789 41.35C53.8888 41.0849 53.8168 40.9113 53.7688 40.8229C53.7237 40.7345 53.6607 40.6675 53.5796 40.6279C53.5046 40.5852 53.3755 40.5639 53.1954 40.5639C53.1744 40.5639 53.1384 40.5639 53.0933 40.5669V39.9484C53.1534 39.9484 53.1924 39.9514 53.2104 39.9514C53.6097 39.9514 53.8918 40.0123 54.0599 40.1281C54.225 40.25 54.3871 40.5212 54.5492 40.9509C54.6723 41.2769 54.7714 41.4933 54.8404 41.5816C54.9095 41.67 55.0145 41.7218 55.1526 41.734V39.9788H55.9541Z" fill="black"/>
<path d="M59.3634 43.4065H60.1619C60.42 43.4065 60.6001 43.3943 60.7022 43.37C60.8043 43.3425 60.8943 43.2877 60.9724 43.1963C61.0504 43.1049 61.0864 42.9952 61.0864 42.8641C61.0864 42.6722 61.0234 42.5351 60.8883 42.4467C60.7532 42.3583 60.5251 42.3157 60.2009 42.3157H59.3664V43.4065H59.3634ZM58.5469 39.9785H61.5817V40.6702H59.3664V41.624H60.4651C60.7682 41.624 61.0204 41.6636 61.2185 41.7367C61.4166 41.8098 61.5877 41.95 61.7288 42.1542C61.8699 42.3583 61.939 42.593 61.939 42.8641C61.939 43.1445 61.8699 43.3822 61.7288 43.5802C61.5847 43.7783 61.4226 43.9154 61.2425 43.9885C61.0624 44.0617 60.8013 44.0952 60.4651 44.0952H58.5469V39.9785Z" fill="black"/>
<path d="M67.3125 39.9785V44.1013H66.49V39.9785H67.3125ZM63.4521 43.4065H64.2506C64.5087 43.4065 64.6859 43.3943 64.7849 43.37C64.887 43.3425 64.974 43.2877 65.0551 43.1963C65.1361 43.1049 65.1721 42.9952 65.1721 42.8672C65.1721 42.6844 65.1091 42.5472 64.983 42.4528C64.854 42.3644 64.6228 42.3157 64.2896 42.3157H63.4581V43.4065H63.4521ZM62.6296 39.9785H63.4491V41.624H64.5448C64.8329 41.624 65.0821 41.6666 65.2892 41.7459C65.4933 41.822 65.6675 41.9652 65.8085 42.1724C65.9466 42.3766 66.0127 42.6143 66.0127 42.8794C66.0127 43.1567 65.9436 43.4004 65.7995 43.5985C65.6554 43.7996 65.4933 43.9337 65.3192 44.0007C65.1451 44.0678 64.884 44.0952 64.5448 44.0952H62.6266V39.9785H62.6296Z" fill="black"/>
<path d="M109.108 0H56.8069V0.237676H109.108V0Z" fill="#E6E7E8"/>
</g>
<defs>
<clipPath id="clip0_44_3074">
<rect width="109" height="45" fill="white"/>
</clipPath>
</defs>
</svg>
