<svg width="170" height="16" viewBox="0 0 170 16" fill="none" xmlns="http://www.w3.org/2000/svg">
<path d="M2.84 15V4.55H0.69V2.52C1.13667 2.52 1.54 2.47333 1.9 2.38C2.26 2.28667 2.56333 2.13 2.81 1.91C3.06333 1.69 3.25333 1.38667 3.38 0.999999H5.43V15H2.84ZM14.3278 15.24C13.5011 15.24 12.7711 15.1067 12.1378 14.84C11.5045 14.5667 10.9745 14.1867 10.5478 13.7C10.1211 13.2067 9.79781 12.6333 9.57781 11.98C9.36448 11.32 9.25781 10.6067 9.25781 9.84C9.25781 8.38 9.54781 7.02 10.1278 5.76C10.7078 4.5 11.5978 3.43 12.7978 2.55C13.9978 1.67 15.5245 1.07333 17.3778 0.76V3.16C16.6778 3.29333 15.9911 3.52 15.3178 3.84C14.6445 4.16 14.0445 4.57333 13.5178 5.08C12.9911 5.58667 12.6045 6.18667 12.3578 6.88C12.6178 6.66 12.9478 6.48333 13.3478 6.35C13.7478 6.21 14.2011 6.14 14.7078 6.14C15.5811 6.14 16.3578 6.33667 17.0378 6.73C17.7245 7.12333 18.2645 7.66 18.6578 8.34C19.0578 9.02 19.2578 9.79333 19.2578 10.66C19.2578 11.56 19.0445 12.3533 18.6178 13.04C18.1911 13.7267 17.6045 14.2667 16.8578 14.66C16.1178 15.0467 15.2745 15.24 14.3278 15.24ZM14.3178 12.8C14.7778 12.8 15.1878 12.7133 15.5478 12.54C15.9078 12.3667 16.1878 12.1267 16.3878 11.82C16.5878 11.5067 16.6878 11.1333 16.6878 10.7C16.6878 10.0533 16.4645 9.54 16.0178 9.16C15.5778 8.77333 15.0111 8.58 14.3178 8.58C13.8511 8.58 13.4345 8.67 13.0678 8.85C12.7078 9.02333 12.4245 9.27 12.2178 9.59C12.0111 9.91 11.9078 10.28 11.9078 10.7C11.9078 11.1333 12.0111 11.5067 12.2178 11.82C12.4311 12.1267 12.7178 12.3667 13.0778 12.54C13.4445 12.7133 13.8578 12.8 14.3178 12.8ZM22.713 15.25C22.2463 15.25 21.8563 15.0967 21.543 14.79C21.2296 14.4767 21.073 14.0933 21.073 13.64C21.073 13.1933 21.2296 12.81 21.543 12.49C21.8563 12.1633 22.2463 12 22.713 12C23.1796 12 23.573 12.1633 23.893 12.49C24.213 12.81 24.373 13.1933 24.373 13.64C24.373 14.0933 24.213 14.4767 23.893 14.79C23.573 15.0967 23.1796 15.25 22.713 15.25ZM31.7363 15.24C30.7363 15.24 29.9063 15.03 29.2463 14.61C28.5863 14.1833 28.0629 13.6167 27.6763 12.91C27.2896 12.2033 27.0129 11.4233 26.8463 10.57C26.6863 9.71667 26.6063 8.86 26.6063 8C26.6063 7.32 26.6563 6.63667 26.7563 5.95C26.8563 5.25667 27.0196 4.6 27.2463 3.98C27.4796 3.36 27.7929 2.81 28.1863 2.33C28.5796 1.84333 29.0663 1.46 29.6463 1.18C30.2329 0.9 30.9296 0.76 31.7363 0.76C32.7296 0.76 33.5563 0.97 34.2163 1.39C34.8829 1.81 35.4063 2.37 35.7863 3.07C36.1729 3.77 36.4463 4.55 36.6063 5.41C36.7729 6.26333 36.8563 7.12667 36.8563 8C36.8563 8.68 36.8063 9.36333 36.7063 10.05C36.6063 10.7367 36.4396 11.39 36.2063 12.01C35.9729 12.63 35.6596 13.1833 35.2663 13.67C34.8729 14.1567 34.3863 14.54 33.8063 14.82C33.2263 15.1 32.5363 15.24 31.7363 15.24ZM31.7363 12.8C32.2296 12.8 32.6363 12.6633 32.9563 12.39C33.2829 12.11 33.5396 11.74 33.7263 11.28C33.9196 10.82 34.0563 10.3067 34.1363 9.74C34.2163 9.17333 34.2563 8.59333 34.2563 8C34.2563 7.4 34.2129 6.81667 34.1263 6.25C34.0463 5.68333 33.9129 5.17 33.7263 4.71C33.5396 4.24333 33.2829 3.87667 32.9563 3.61C32.6363 3.33667 32.2296 3.2 31.7363 3.2C31.2363 3.2 30.8229 3.33667 30.4963 3.61C30.1696 3.88333 29.9096 4.25333 29.7163 4.72C29.5229 5.18 29.3863 5.69333 29.3063 6.26C29.2263 6.82667 29.1863 7.40667 29.1863 8C29.1863 8.59333 29.2263 9.17667 29.3063 9.75C29.3863 10.3167 29.5229 10.83 29.7163 11.29C29.9096 11.75 30.1696 12.1167 30.4963 12.39C30.8296 12.6633 31.2429 12.8 31.7363 12.8ZM41.5408 15.24V12.85C42.2408 12.79 42.9208 12.62 43.5808 12.34C44.2408 12.06 44.8208 11.6433 45.3208 11.09C45.8274 10.5367 46.1974 9.82333 46.4308 8.95C46.1508 9.19667 45.8008 9.39667 45.3808 9.55C44.9674 9.69667 44.4941 9.77 43.9608 9.77C43.0674 9.77 42.2708 9.59 41.5708 9.23C40.8708 8.86333 40.3174 8.34667 39.9108 7.68C39.5108 7.00667 39.3108 6.20667 39.3108 5.28C39.3108 4.37333 39.5241 3.58333 39.9508 2.91C40.3841 2.23 40.9774 1.70333 41.7308 1.33C42.4908 0.949999 43.3574 0.76 44.3308 0.76C45.4908 0.76 46.4441 0.996666 47.1908 1.47C47.9441 1.93667 48.5008 2.58 48.8608 3.4C49.2208 4.21333 49.4008 5.14 49.4008 6.18C49.4008 7.9 49.1074 9.42333 48.5208 10.75C47.9408 12.07 47.0674 13.1233 45.9008 13.91C44.7408 14.69 43.2874 15.1333 41.5408 15.24ZM44.3008 7.38C44.7541 7.38 45.1541 7.29667 45.5008 7.13C45.8541 6.96333 46.1274 6.72 46.3208 6.4C46.5208 6.08 46.6208 5.69333 46.6208 5.24C46.6208 4.82667 46.5208 4.46 46.3208 4.14C46.1208 3.82 45.8474 3.57 45.5008 3.39C45.1541 3.21 44.7574 3.12 44.3108 3.12C43.8041 3.12 43.3674 3.21 43.0008 3.39C42.6341 3.57 42.3508 3.82 42.1508 4.14C41.9574 4.46 41.8608 4.82333 41.8608 5.23C41.8608 5.68333 41.9574 6.07 42.1508 6.39C42.3508 6.71 42.6308 6.95667 42.9908 7.13C43.3574 7.29667 43.7941 7.38 44.3008 7.38ZM57.1459 10.28V7.89H62.3259V10.28H57.1459ZM71.7072 15V4.55H69.5572V2.52C70.0039 2.52 70.4072 2.47333 70.7672 2.38C71.1272 2.28667 71.4305 2.13 71.6772 1.91C71.9305 1.69 72.1205 1.38667 72.2472 0.999999H74.2972V15H71.7072ZM84.3745 15V12.1H77.2245V10.48L84.4245 0.999999H86.9045V9.71H88.6745V12.1H86.9045V15H84.3745ZM80.5845 9.71H84.3745V4.59L80.5845 9.71ZM92.127 15.25C91.6604 15.25 91.2704 15.0967 90.957 14.79C90.6437 14.4767 90.487 14.0933 90.487 13.64C90.487 13.1933 90.6437 12.81 90.957 12.49C91.2704 12.1633 91.6604 12 92.127 12C92.5937 12 92.987 12.1633 93.307 12.49C93.627 12.81 93.787 13.1933 93.787 13.64C93.787 14.0933 93.627 14.4767 93.307 14.79C92.987 15.0967 92.5937 15.25 92.127 15.25ZM97.4103 15V4.55H95.2603V2.52C95.707 2.52 96.1103 2.47333 96.4703 2.38C96.8303 2.28667 97.1336 2.13 97.3803 1.91C97.6336 1.69 97.8236 1.38667 97.9503 0.999999H100V15H97.4103ZM109.158 15.24C108.158 15.24 107.328 15.03 106.668 14.61C106.008 14.1833 105.485 13.6167 105.098 12.91C104.711 12.2033 104.435 11.4233 104.268 10.57C104.108 9.71667 104.028 8.86 104.028 8C104.028 7.32 104.078 6.63667 104.178 5.95C104.278 5.25667 104.441 4.6 104.668 3.98C104.901 3.36 105.215 2.81 105.608 2.33C106.001 1.84333 106.488 1.46 107.068 1.18C107.655 0.9 108.351 0.76 109.158 0.76C110.151 0.76 110.978 0.97 111.638 1.39C112.305 1.81 112.828 2.37 113.208 3.07C113.595 3.77 113.868 4.55 114.028 5.41C114.195 6.26333 114.278 7.12667 114.278 8C114.278 8.68 114.228 9.36333 114.128 10.05C114.028 10.7367 113.861 11.39 113.628 12.01C113.395 12.63 113.081 13.1833 112.688 13.67C112.295 14.1567 111.808 14.54 111.228 14.82C110.648 15.1 109.958 15.24 109.158 15.24ZM109.158 12.8C109.651 12.8 110.058 12.6633 110.378 12.39C110.705 12.11 110.961 11.74 111.148 11.28C111.341 10.82 111.478 10.3067 111.558 9.74C111.638 9.17333 111.678 8.59333 111.678 8C111.678 7.4 111.635 6.81667 111.548 6.25C111.468 5.68333 111.335 5.17 111.148 4.71C110.961 4.24333 110.705 3.87667 110.378 3.61C110.058 3.33667 109.651 3.2 109.158 3.2C108.658 3.2 108.245 3.33667 107.918 3.61C107.591 3.88333 107.331 4.25333 107.138 4.72C106.945 5.18 106.808 5.69333 106.728 6.26C106.648 6.82667 106.608 7.40667 106.608 8C106.608 8.59333 106.648 9.17667 106.728 9.75C106.808 10.3167 106.945 10.83 107.138 11.29C107.331 11.75 107.591 12.1167 107.918 12.39C108.251 12.6633 108.665 12.8 109.158 12.8ZM118.143 15.25C117.676 15.25 117.286 15.0967 116.973 14.79C116.659 14.4767 116.503 14.0933 116.503 13.64C116.503 13.1933 116.659 12.81 116.973 12.49C117.286 12.1633 117.676 12 118.143 12C118.609 12 119.003 12.1633 119.323 12.49C119.643 12.81 119.803 13.1933 119.803 13.64C119.803 14.0933 119.643 14.4767 119.323 14.79C119.003 15.0967 118.609 15.25 118.143 15.25ZM121.876 15C121.876 13.9733 121.999 13.0733 122.246 12.3C122.493 11.52 122.833 10.8333 123.266 10.24C123.699 9.64667 124.199 9.12333 124.766 8.67C125.339 8.21667 125.946 7.81 126.586 7.45C126.966 7.23667 127.323 7.01 127.656 6.77C127.989 6.53 128.259 6.26 128.466 5.96C128.673 5.66 128.776 5.31333 128.776 4.92C128.776 4.39333 128.599 3.97667 128.246 3.67C127.899 3.35667 127.433 3.2 126.846 3.2C126.233 3.2 125.726 3.34667 125.326 3.64C124.933 3.92667 124.626 4.32667 124.406 4.84L122.096 3.79C122.469 2.87 123.083 2.13667 123.936 1.59C124.796 1.03667 125.756 0.76 126.816 0.76C127.776 0.76 128.593 0.943333 129.266 1.31C129.946 1.67 130.463 2.16 130.816 2.78C131.176 3.39333 131.356 4.08667 131.356 4.86C131.356 5.67333 131.209 6.35333 130.916 6.9C130.629 7.44667 130.236 7.92 129.736 8.32C129.243 8.72 128.689 9.1 128.076 9.46C127.469 9.82 126.953 10.1533 126.526 10.46C126.106 10.76 125.763 11.0733 125.496 11.4C125.229 11.72 125.029 12.09 124.896 12.51H131.476V15H121.876ZM139.393 15.24C138.393 15.24 137.563 15.03 136.903 14.61C136.243 14.1833 135.719 13.6167 135.333 12.91C134.946 12.2033 134.669 11.4233 134.503 10.57C134.343 9.71667 134.263 8.86 134.263 8C134.263 7.32 134.313 6.63667 134.413 5.95C134.513 5.25667 134.676 4.6 134.903 3.98C135.136 3.36 135.449 2.81 135.843 2.33C136.236 1.84333 136.723 1.46 137.303 1.18C137.889 0.9 138.586 0.76 139.393 0.76C140.386 0.76 141.213 0.97 141.873 1.39C142.539 1.81 143.063 2.37 143.443 3.07C143.829 3.77 144.103 4.55 144.263 5.41C144.429 6.26333 144.513 7.12667 144.513 8C144.513 8.68 144.463 9.36333 144.363 10.05C144.263 10.7367 144.096 11.39 143.863 12.01C143.629 12.63 143.316 13.1833 142.923 13.67C142.529 14.1567 142.043 14.54 141.463 14.82C140.883 15.1 140.193 15.24 139.393 15.24ZM139.393 12.8C139.886 12.8 140.293 12.6633 140.613 12.39C140.939 12.11 141.196 11.74 141.383 11.28C141.576 10.82 141.713 10.3067 141.793 9.74C141.873 9.17333 141.913 8.59333 141.913 8C141.913 7.4 141.869 6.81667 141.783 6.25C141.703 5.68333 141.569 5.17 141.383 4.71C141.196 4.24333 140.939 3.87667 140.613 3.61C140.293 3.33667 139.886 3.2 139.393 3.2C138.893 3.2 138.479 3.33667 138.153 3.61C137.826 3.88333 137.566 4.25333 137.373 4.72C137.179 5.18 137.043 5.69333 136.963 6.26C136.883 6.82667 136.843 7.40667 136.843 8C136.843 8.59333 136.883 9.17667 136.963 9.75C137.043 10.3167 137.179 10.83 137.373 11.29C137.566 11.75 137.826 12.1167 138.153 12.39C138.486 12.6633 138.899 12.8 139.393 12.8ZM147.247 15C147.247 13.9733 147.37 13.0733 147.617 12.3C147.864 11.52 148.204 10.8333 148.637 10.24C149.07 9.64667 149.57 9.12333 150.137 8.67C150.71 8.21667 151.317 7.81 151.957 7.45C152.337 7.23667 152.694 7.01 153.027 6.77C153.36 6.53 153.63 6.26 153.837 5.96C154.044 5.66 154.147 5.31333 154.147 4.92C154.147 4.39333 153.97 3.97667 153.617 3.67C153.27 3.35667 152.804 3.2 152.217 3.2C151.604 3.2 151.097 3.34667 150.697 3.64C150.304 3.92667 149.997 4.32667 149.777 4.84L147.467 3.79C147.84 2.87 148.454 2.13667 149.307 1.59C150.167 1.03667 151.127 0.76 152.187 0.76C153.147 0.76 153.964 0.943333 154.637 1.31C155.317 1.67 155.834 2.16 156.187 2.78C156.547 3.39333 156.727 4.08667 156.727 4.86C156.727 5.67333 156.58 6.35333 156.287 6.9C156 7.44667 155.607 7.92 155.107 8.32C154.614 8.72 154.06 9.1 153.447 9.46C152.84 9.82 152.324 10.1533 151.897 10.46C151.477 10.76 151.134 11.0733 150.867 11.4C150.6 11.72 150.4 12.09 150.267 12.51H156.847V15H147.247ZM159.474 15C159.474 13.9733 159.597 13.0733 159.844 12.3C160.09 11.52 160.43 10.8333 160.864 10.24C161.297 9.64667 161.797 9.12333 162.364 8.67C162.937 8.21667 163.544 7.81 164.184 7.45C164.564 7.23667 164.92 7.01 165.254 6.77C165.587 6.53 165.857 6.26 166.064 5.96C166.27 5.66 166.374 5.31333 166.374 4.92C166.374 4.39333 166.197 3.97667 165.844 3.67C165.497 3.35667 165.03 3.2 164.444 3.2C163.83 3.2 163.324 3.34667 162.924 3.64C162.53 3.92667 162.224 4.32667 162.004 4.84L159.694 3.79C160.067 2.87 160.68 2.13667 161.534 1.59C162.394 1.03667 163.354 0.76 164.414 0.76C165.374 0.76 166.19 0.943333 166.864 1.31C167.544 1.67 168.06 2.16 168.414 2.78C168.774 3.39333 168.954 4.08667 168.954 4.86C168.954 5.67333 168.807 6.35333 168.514 6.9C168.227 7.44667 167.834 7.92 167.334 8.32C166.84 8.72 166.287 9.1 165.674 9.46C165.067 9.82 164.55 10.1533 164.124 10.46C163.704 10.76 163.36 11.0733 163.094 11.4C162.827 11.72 162.627 12.09 162.494 12.51H169.074V15H159.474Z" fill="#EA4646"/>
</svg>
