<svg width="66" height="66" viewBox="0 0 66 66" fill="none" xmlns="http://www.w3.org/2000/svg">
<path d="M58.7552 62.7791C60.9775 62.7791 62.7813 60.9769 62.7813 58.7569V7.2447C62.7813 5.02184 60.9789 3.22102 58.7552 3.2196V3.54183V3.21817H7.24504V3.2196C5.0228 3.2196 3.21899 5.02041 3.21899 7.24327V58.7555C3.21899 60.9769 5.02138 62.7777 7.24504 62.7777H58.7552V62.7791Z" fill="#BE1E2D"/>
<path d="M66 7.24461C66 3.24375 62.7557 0.00142582 58.7551 0.00142582H7.2449V0C3.2443 0 0 3.24233 0 7.24461V58.7568C0 62.7562 3.2443 66 7.2449 66V64.3888C4.13348 64.3888 1.61014 61.8665 1.61014 58.7568V7.24461C1.61014 4.13347 4.13348 1.61118 7.2449 1.60976V1.61118H58.7551C61.8665 1.61118 64.3899 4.13347 64.3899 7.24461V58.7568C64.3899 61.868 61.8665 64.3888 58.7551 64.3888H7.2449V66H58.7551C62.7557 66 66 62.7562 66 58.7568V7.24461Z" fill="#BE1E2D"/>
<path d="M13.5839 14.8897V19.7189H10.464C9.1309 19.7189 8.04805 18.6382 8.04805 17.305V14.8897H13.5839ZM15.1912 14.8897H20.727V17.305C20.727 18.6382 19.6441 19.7189 18.3111 19.7189H15.1912V14.8897ZM7.24511 9.45729C6.80122 9.45729 6.43933 9.81802 6.43933 10.2629V17.305C6.43933 19.5279 8.24172 21.3287 10.4654 21.3287H13.5853V31.6916C13.5853 32.1364 13.9443 32.4972 14.3882 32.4972C14.8321 32.4972 15.1912 32.1364 15.1912 31.6916V21.3287H18.3111H18.3139H18.5132V21.3244C20.6422 21.2189 22.3343 19.4594 22.3343 17.305V10.2629C22.3343 9.81802 21.9752 9.45729 21.5313 9.45729C21.0875 9.45729 20.7284 9.81802 20.7284 10.2629V13.2799H15.1926V7.84753C15.1926 7.40267 14.8335 7.04337 14.3896 7.04337C13.9458 7.04337 13.5839 7.40267 13.5839 7.84753V13.2799H8.04805V10.2629C8.04805 9.81802 7.68899 9.45729 7.24511 9.45729Z" fill="white"/>
<path d="M48.5446 47.2362C48.9617 47.2362 49.2981 47.5741 49.2981 47.9905C49.2981 48.4068 48.9617 48.7447 48.5446 48.7447C48.1276 48.7447 47.7883 48.4068 47.7883 47.9905C47.7883 47.5741 48.1276 47.2362 48.5446 47.2362ZM48.5446 50.3545C49.8508 50.3545 50.9082 49.2965 50.9082 47.9905C50.9082 46.6844 49.8508 45.6264 48.5446 45.6264C47.2384 45.6264 46.181 46.6844 46.181 47.9905C46.181 49.2965 47.2384 50.3545 48.5446 50.3545Z" fill="white"/>
<path d="M33.1004 11.067C34.572 11.067 35.9376 11.5118 37.0756 12.2732V13.431C37.0756 15.6253 35.2972 17.4048 33.1004 17.4048C30.9078 17.4048 29.1267 15.6253 29.1267 13.431V12.2732C30.2632 11.5118 31.6302 11.067 33.1004 11.067ZM32.296 9.49429C27.8403 9.90065 24.35 13.6477 24.35 18.2089V18.2104C24.35 18.6552 24.709 19.0145 25.1529 19.0145C25.5968 19.0145 25.9559 18.6552 25.9559 18.2104C25.9559 16.5193 26.5439 14.968 27.5264 13.7447C27.6282 15.6396 28.6771 17.2821 30.2095 18.2104C28.5937 19.1885 27.5151 20.9622 27.5151 22.9883V31.6915C27.5151 32.1364 27.877 32.4971 28.3209 32.4971C28.7648 32.4971 29.1238 32.1364 29.1238 31.6915V22.9883C29.1238 20.7954 30.9022 19.0159 33.0962 19.0145C33.0976 19.0145 33.0976 19.0145 33.0976 19.0145C33.099 19.0145 33.099 19.0145 33.099 19.0145C35.2944 19.0159 37.0727 20.7954 37.0727 22.9883V31.6915C37.0727 32.1364 37.4318 32.4971 37.8757 32.4971C38.3196 32.4971 38.6814 32.1364 38.6814 31.6915V22.9883C38.6814 20.9622 37.6014 19.1885 35.9871 18.2104C37.5166 17.2821 38.5684 15.6396 38.673 13.7447C39.6526 14.968 40.2407 16.5208 40.2407 18.2104C40.2407 18.6552 40.5998 19.0145 41.0436 19.0145C41.4875 19.0145 41.8494 18.6552 41.8494 18.2104C41.8494 18.2089 41.8494 18.2089 41.8494 18.2089C41.8466 13.6463 38.3563 9.90065 33.9005 9.49429V7.89736H33.8977C33.8991 7.88168 33.9005 7.86457 33.9005 7.84746C33.9005 7.4026 33.54 7.04187 33.0947 7.04187C32.6523 7.04187 32.2904 7.4026 32.2904 7.84746C32.2904 7.86457 32.2932 7.88168 32.2932 7.89736H32.2904V9.49429H32.296Z" fill="white"/>
<path d="M55.687 49.6004C55.6701 49.6004 55.6545 49.599 55.6376 49.599V49.5491C55.6376 48.2444 56.695 47.1865 58.0012 47.1865H58.0506V49.6004H55.687ZM54.0684 48.9602C53.6104 48.5296 53.3234 47.9179 53.3234 47.2364V42.7593H54.983C56.2893 42.7593 57.3467 41.6999 57.3467 40.3938C57.3467 39.9504 56.9876 39.5897 56.5437 39.5897C56.0998 39.5897 55.7379 39.9518 55.7379 40.3938C55.7379 40.8116 55.4015 41.1481 54.9845 41.1481H53.3248V39.2375V39.2347V36.8222H55.6856H55.6885H55.6913C56.9947 36.8236 58.0521 37.8815 58.0521 39.1876C58.0521 39.1876 58.0521 39.1876 58.0521 39.189V45.5753H58.0026C56.0037 45.5767 54.3554 47.0453 54.0684 48.9602ZM58.0492 55.1839C58.0492 56.49 56.9918 57.5479 55.6856 57.5479H47.7381V59.1577H55.687C57.8824 59.1577 59.6608 57.3797 59.6608 55.1868C59.6608 55.1854 59.6608 55.1839 59.6608 55.1839V39.1876C59.6608 39.1862 59.6608 39.1862 59.6608 39.1848C59.6608 36.9918 57.8824 35.2138 55.687 35.2124H47.7381C45.5456 35.2124 43.7644 36.9918 43.7644 39.1876V55.1839C43.7644 57.3783 45.5456 59.1577 47.7381 59.1577V57.5479C46.4319 57.5479 45.3745 56.49 45.3745 55.1839V55.1825V39.189V39.1876C45.3745 37.8815 46.4319 36.8222 47.7381 36.8222H47.741H51.7119V41.1481H46.9847C46.5408 41.1481 46.1789 41.5088 46.1789 41.9523C46.1789 42.3986 46.5408 42.7579 46.9847 42.7579H51.7119V47.235C51.7119 48.8362 52.6619 50.2178 54.0288 50.8451V53.0694H46.9861C46.5422 53.0694 46.1803 53.4316 46.1803 53.875C46.1803 54.3185 46.5422 54.6778 46.9861 54.6778H46.9889H54.8304H54.8332C55.2771 54.6778 55.639 54.3185 55.639 53.875V51.2073C55.6559 51.2073 55.6715 51.2087 55.6885 51.2087H58.0521V55.1839C58.0492 55.1839 58.0492 55.1839 58.0492 55.1839Z" fill="white"/>
<path d="M39.9155 58.3276C39.9155 58.7739 40.2774 59.1318 40.7213 59.1318C41.1652 59.1318 41.5242 58.7725 41.5242 58.3276V52.7313H41.5384C41.5384 50.5212 39.7459 48.7304 37.5406 48.7304V48.7447C36.2231 48.7361 35.1614 47.6696 35.1614 46.355V45.2485H36.2923C38.5019 45.2485 40.2929 43.4563 40.2929 41.2477V35.9679C40.2929 35.5216 39.9311 35.1623 39.49 35.1623C39.0433 35.1623 38.6842 35.523 38.6842 35.9679V41.2477C38.6842 42.568 37.6127 43.6374 36.2938 43.6374H35.1629V35.2136C35.1629 35.2136 35.1629 35.2136 35.1629 35.2122C35.1629 34.7673 34.8024 34.4094 34.3599 34.4094C33.9146 34.4094 33.5555 34.7687 33.5555 35.2122V35.2136V46.355C33.5555 48.5636 35.3452 50.3544 37.5547 50.3544V50.343C38.8638 50.3487 39.924 51.4095 39.9325 52.7184H39.9183V58.3276H39.9155Z" fill="white"/>
<path d="M50.8076 14.8901V19.7193H47.6877C46.3546 19.7193 45.2718 18.6386 45.2718 17.3054V14.8901H50.8076ZM52.4177 14.8901H57.9507V17.3054C57.9507 18.6386 56.8679 19.7193 55.5376 19.7193H52.4177V14.8901ZM44.4688 9.45768C44.025 9.45768 43.6659 9.81842 43.6659 10.2633V17.3054C43.6659 19.5283 45.4655 21.3291 47.6891 21.3291H50.809V31.692C50.809 32.1368 51.1681 32.4976 51.612 32.4976C52.0558 32.4976 52.4177 32.1368 52.4177 31.692V21.3291H55.737V21.3248C57.8659 21.2193 59.5609 19.4598 59.5609 17.3054V10.2633C59.5609 9.81842 59.199 9.45768 58.7551 9.45768C58.3126 9.45768 57.9521 9.81842 57.9521 10.2633V13.2803H52.4177V7.84793C52.4177 7.40307 52.0558 7.04376 51.612 7.04376C51.1681 7.04376 50.809 7.40307 50.809 7.84793V13.2803H45.2732V10.2633C45.2718 9.81842 44.9127 9.45768 44.4688 9.45768Z" fill="white"/>
<path d="M9.98583 47.2104C10.13 47.2104 10.2728 47.2018 10.4113 47.1847V53.5724C10.4113 53.5738 10.4113 53.5738 10.4113 53.5753C10.4142 56.6579 12.9135 59.1559 15.9966 59.1559H21.5268H21.5296C21.9735 59.1559 22.3354 58.7952 22.3354 58.3518C22.3354 57.9083 21.9735 57.5476 21.5296 57.5476H15.9966C13.8012 57.5476 12.0229 55.7682 12.0229 53.5738V52.4688H13.5807C13.5892 52.4688 13.5977 52.466 13.609 52.466V52.4688C15.8185 52.4688 17.6068 50.6766 17.6068 48.468V47.1947C17.7312 47.2061 17.8584 47.2118 17.9856 47.2118C20.1923 47.2118 21.9834 45.421 21.9834 43.2124C21.9834 43.2124 21.9834 43.2124 21.9834 43.2095C21.9834 41.0437 20.2602 39.2828 18.11 39.2158V39.2115H17.9856H17.6068V36.8218H18.462C18.9045 36.8218 19.265 36.4625 19.265 36.0191C19.265 35.5728 18.9031 35.2135 18.462 35.2135H16.8024C16.3557 35.2135 15.9966 35.5742 15.9966 36.0191V40.0185C15.9966 40.4648 16.3557 40.8227 16.8024 40.8227H17.9842C19.3017 40.8227 20.3718 41.8921 20.3718 43.2124C20.3718 44.5327 19.3003 45.6021 17.9842 45.6021C17.8541 45.6021 17.7269 45.5907 17.6053 45.5721V44.018C17.6053 43.5717 17.2435 43.2138 16.8024 43.2138C16.3557 43.2138 15.9966 43.5731 15.9966 44.018V48.4694C15.9966 49.7911 14.9279 50.8605 13.609 50.8605C13.5977 50.8605 13.5892 50.8605 13.5807 50.8605H12.0243V44.018C12.0243 43.5717 11.6624 43.2138 11.2185 43.2138C10.7746 43.2138 10.4127 43.5731 10.4127 44.018V45.5636C10.2742 45.5892 10.1314 45.6021 9.98724 45.6021C8.6669 45.6021 7.59678 44.5327 7.59678 43.2124C7.59678 41.8949 8.66549 40.8255 9.983 40.8227H11.2694C11.7133 40.8227 12.0752 40.4634 12.0752 40.0185V36.0191C12.0752 35.5728 11.7133 35.2135 11.2694 35.2135H9.60839C9.1645 35.2135 8.80544 35.5742 8.80544 36.0191C8.80544 36.4639 9.1645 36.8218 9.60839 36.8218H10.4636V39.2115H9.98583C9.983 39.2115 9.983 39.2115 9.98017 39.2115H9.9618V39.2129C7.76359 39.2272 5.98523 41.0123 5.98523 43.2124C5.98523 45.4195 7.77772 47.2104 9.98583 47.2104Z" fill="white"/>
<path d="M26.335 52.014C26.3209 53.3215 25.2578 54.378 23.9474 54.378C23.5035 54.378 23.1416 54.7388 23.1416 55.1822C23.1416 55.6256 23.5035 55.9864 23.9474 55.9864V56.012C26.1569 56.012 27.9451 54.2212 27.9451 52.0126V38.4559C29.2655 38.4559 30.3328 39.5252 30.3328 40.8455C30.3328 40.8541 30.3328 40.8627 30.3328 40.8712H30.3611H30.3328V56.2887H31.9429V41.0423C31.9599 40.981 31.9712 40.914 31.9712 40.847C31.9712 40.7657 31.9571 40.6887 31.9359 40.6146C31.803 38.5257 30.0698 36.8718 27.9466 36.8718H26.3364C25.8925 36.8718 25.5335 36.5125 25.5335 36.069C25.5335 35.6227 25.1716 35.2649 24.7277 35.2649C24.2838 35.2649 23.9219 35.6242 23.9219 36.069C23.9219 36.069 23.9219 36.069 23.9219 36.0719C23.9248 37.4036 25.0076 38.4829 26.3378 38.4829V52.014H26.335Z" fill="white"/>
<path d="M33.0492 58.7056C33.4931 58.7056 33.8536 58.3449 33.8536 57.9029C33.8536 57.4566 33.4931 57.0973 33.0492 57.0973H32.7467C32.3028 57.0973 31.9409 56.7366 31.9409 56.2946H30.3308C30.3308 57.5921 31.3585 58.6514 32.6449 58.7042V58.7071H33.0492V58.7056Z" fill="white"/>
</svg>
