<svg width="97" height="64" viewBox="0 0 97 64" fill="none" xmlns="http://www.w3.org/2000/svg">
<g clip-path="url(#clip0_44_3073)">
<path d="M15.4991 53.7162H10.7392V61.8986H9.50464V52.6198H15.4991V53.7162Z" fill="#58595B"/>
<path d="M29.7522 60.8146H28.873V52.6198H27.6384V60.8146H23.0707V52.6198H21.8362V61.8986H28.5785V64.0001H29.7522V60.8146Z" fill="#58595B"/>
<path d="M44.9162 61.8979H43.6858V53.9036L41.1047 59.3442H40.3679L37.8103 53.9036V61.8979H36.6545V52.6178H38.337L40.8116 57.786L43.2047 52.6178H44.9162V61.8979Z" fill="#58595B"/>
<path d="M59.6793 61.2264C59.4512 61.3246 59.2452 61.4186 59.0586 61.5043C58.8747 61.5914 58.6328 61.6854 58.3355 61.7808C58.0798 61.8596 57.8047 61.9246 57.5088 61.9813C57.2116 62.038 56.8867 62.067 56.5259 62.067C55.8554 62.067 55.243 61.973 54.6927 61.785C54.1425 61.5942 53.6628 61.2983 53.255 60.8946C52.8596 60.5019 52.5457 60 52.3204 59.3903C52.0964 58.7819 51.9858 58.074 51.9858 57.2694C51.9858 56.5048 52.0937 55.8204 52.3093 55.2189C52.525 54.6147 52.8361 54.1073 53.2439 53.6911C53.6407 53.2916 54.1162 52.9819 54.6748 52.7717C55.2319 52.5574 55.854 52.4551 56.5356 52.4551C57.0319 52.4551 57.5309 52.5145 58.0259 52.6348C58.5222 52.7551 59.0724 52.9653 59.6793 53.2708V54.7336H59.5867C59.0766 54.3078 58.5706 53.9953 58.0673 53.8004C57.5627 53.604 57.0263 53.5073 56.454 53.5073C55.984 53.5073 55.5609 53.5833 55.1849 53.734C54.8102 53.8861 54.4715 54.1225 54.1771 54.4419C53.8909 54.753 53.6683 55.147 53.5093 55.624C53.349 56.0983 53.2688 56.6472 53.2688 57.2707C53.2688 57.9247 53.3559 58.4833 53.5328 58.952C53.7098 59.4221 53.9351 59.8051 54.2144 60.0996C54.5061 60.4065 54.8448 60.636 55.2319 60.7812C55.6217 60.9291 56.031 61.0024 56.4623 61.0024C57.0595 61.0024 57.6139 60.9029 58.1337 60.6969C58.6521 60.4922 59.1401 60.1881 59.5922 59.7816H59.6793V61.2264Z" fill="#58595B"/>
<path d="M73.6142 61.8979H72.3865V54.4636L67.7746 61.8979H66.5276V52.6178H67.758V59.9401L72.3119 52.6178H73.6142V61.8979Z" fill="#58595B"/>
<path d="M85.9959 55.4529C85.9959 55.1349 85.9392 54.857 85.8272 54.6205C85.7152 54.3813 85.5452 54.1892 85.3157 54.0398C85.1166 53.9113 84.8885 53.8172 84.6355 53.7619C84.377 53.708 84.0576 53.679 83.6664 53.679H82.4429V57.3858H83.4853C83.9816 57.3858 84.388 57.3415 84.7005 57.2517C85.0129 57.1618 85.2645 57.0208 85.4608 56.8244C85.6558 56.6253 85.794 56.4152 85.8756 56.194C85.9558 55.9755 85.9959 55.7308 85.9959 55.4529ZM87.2788 55.4238C87.2788 55.8359 87.2069 56.2161 87.0631 56.5673C86.9193 56.9184 86.7203 57.2226 86.4631 57.4798C86.1424 57.7978 85.765 58.0398 85.3295 58.2001C84.894 58.3591 84.341 58.4407 83.6788 58.4407H82.4429V61.8973H81.2097V52.6171H83.7272C84.283 52.6171 84.7558 52.6669 85.1415 52.7609C85.5258 52.8522 85.8687 53.0015 86.1687 53.1978C86.5212 53.4356 86.7949 53.7329 86.9885 54.0841C87.182 54.438 87.2788 54.8832 87.2788 55.4238Z" fill="#58595B"/>
<path d="M28.7134 24.6468H19.4978V33.8758C20.0453 31.665 21.1747 29.6588 22.8102 28.0135C24.4609 26.3502 26.4807 25.2012 28.7134 24.6468Z" fill="#C2143C"/>
<path d="M74.1674 28.0271C75.8084 29.678 76.9406 31.6883 77.4881 33.9032V24.6535H68.249C70.4873 25.2066 72.5126 26.3583 74.1674 28.0271Z" fill="#C2143C"/>
<path d="M48.5106 0L39.1899 4.66219H57.8312L48.5106 0Z" fill="#C2143C"/>
<path d="M77.9883 14.8976V24.1611H87.2495C87.1209 19.1464 83.0011 15.0262 77.9883 14.8976Z" fill="#C2143C"/>
<path d="M9.75024 24.1611H19.0114V14.899C14 15.0275 9.87881 19.1477 9.75024 24.1611Z" fill="#C2143C"/>
<path d="M9.26397 24.6441H0V33.909H9.26397V24.6441Z" fill="#C2143C"/>
<path d="M9.26397 34.3954H0V43.6617H9.26397V34.3954Z" fill="#C2143C"/>
<path d="M19.0115 24.6468H9.74756V33.9103H19.0115V24.6468Z" fill="#C2143C"/>
<path d="M19.0115 34.3953H9.74756V43.6616H19.0115V34.3953Z" fill="#C2143C"/>
<path d="M28.7603 5.14633H19.4963V14.4113H28.7603V5.14633Z" fill="#C2143C"/>
<path d="M28.7604 14.8976H19.4978V24.1625H28.7604V14.8976Z" fill="#C2143C"/>
<path d="M38.5093 5.14566H29.2454V14.4106H38.5093V5.14566Z" fill="#C2143C"/>
<path d="M38.5066 14.8976H29.2427V24.1625H38.5066V14.8976Z" fill="#C2143C"/>
<path d="M48.2583 5.14633H38.9929V14.4113H48.2583V5.14633Z" fill="#C2143C"/>
<path d="M48.258 14.8977H38.9927V24.1626H48.258V14.8977Z" fill="#C2143C"/>
<path d="M58.007 5.14566H48.7417V14.4106H58.007V5.14566Z" fill="#C2143C"/>
<path d="M58.007 14.8976H48.7417V24.1625H58.007V14.8976Z" fill="#C2143C"/>
<path d="M67.7544 5.14633H58.4905V14.4113H67.7544V5.14633Z" fill="#C2143C"/>
<path d="M67.7559 14.8976H58.4919V24.1625H67.7559V14.8976Z" fill="#C2143C"/>
<path d="M77.5047 5.147H68.2407V14.4105H77.5047V5.147Z" fill="#C2143C"/>
<path d="M77.5033 14.8976H68.2407V24.1625H77.5033V14.8976Z" fill="#C2143C"/>
<path d="M87.2509 24.6454H82.6223H77.9883V33.9104H87.2509V24.6454Z" fill="#C2143C"/>
<path d="M87.2509 34.3953H77.9883V43.6602H87.2509V34.3953Z" fill="#C2143C"/>
<path d="M96.9998 24.6441H87.7358V33.909H96.9998V24.6441Z" fill="#C2143C"/>
<path d="M96.9998 34.3953H87.7358V43.6602H96.9998V34.3953Z" fill="#C2143C"/>
</g>
<defs>
<clipPath id="clip0_44_3073">
<rect width="97" height="64" fill="white"/>
</clipPath>
</defs>
</svg>
