<svg width="365" height="35" viewBox="0 0 365 35" fill="none" xmlns="http://www.w3.org/2000/svg">
<path d="M0.150391 28V25.1426L3.10059 24.5859V4.41699L0.150391 3.86035V0.984375H20.2637V7.45996H16.5342L16.293 4.60254H7.8877V11.4307H13.3799C15.4085 11.4307 17.1465 11.7708 18.5938 12.4512C20.041 13.1191 21.1543 14.0654 21.9336 15.29C22.7129 16.5146 23.1025 17.9619 23.1025 19.6318C23.1025 21.3018 22.7067 22.7676 21.915 24.0293C21.1357 25.291 20.0163 26.2682 18.5566 26.9609C17.1094 27.6536 15.3838 28 13.3799 28H0.150391ZM7.8877 24.4004H13.3799C15.0251 24.4004 16.2744 23.9489 17.1279 23.0459C17.9938 22.1305 18.4268 20.9801 18.4268 19.5947C18.4268 18.2588 18 17.1702 17.1465 16.3291C16.3053 15.4756 15.0498 15.0488 13.3799 15.0488H7.8877V24.4004ZM31.6562 28.3896C31.347 28.3896 30.9883 28.3711 30.5801 28.334C30.1842 28.3092 29.9059 28.2845 29.7451 28.2598L29.7637 24.7158C29.8997 24.7282 30.1471 24.7467 30.5059 24.7715C30.877 24.7839 31.1553 24.79 31.3408 24.79C32.2809 24.79 32.9674 24.5736 33.4004 24.1406C33.8457 23.6953 34.2663 23.0088 34.6621 22.0811L35.2002 20.8379L27.4072 4.23145L24.8281 3.86035V0.984375H34.5322V3.86035L32.417 4.19434L36.2949 13.1377L37.2412 15.5498H37.3525L41.6016 4.25L39.542 3.86035V0.984375H49.0234V3.86035L46.6113 4.21289L38.6328 23.1758C38.1257 24.3014 37.5814 25.2539 37 26.0332C36.4186 26.8125 35.7012 27.4001 34.8477 27.7959C34.0065 28.1917 32.9427 28.3896 31.6562 28.3896ZM49.5615 34.6426L49.0977 24.4004H51.2686C51.9118 23.7695 52.5117 22.9346 53.0684 21.8955C53.625 20.8564 54.0827 19.5329 54.4414 17.9248C54.8125 16.3044 55.029 14.3252 55.0908 11.9873L55.5732 4.37988L52.8457 3.86035V0.984375H75.7422V3.86035L72.8105 4.41699V24.4004H76.2246L75.7793 34.6426H71.5488V28H53.7549V34.6426H49.5615ZM56.5195 24.4004H68.1348V4.60254H60.2305L59.8037 11.9873C59.7295 13.8675 59.5501 15.5807 59.2656 17.127C58.9811 18.6608 58.6038 20.0339 58.1338 21.2461C57.6761 22.446 57.138 23.4974 56.5195 24.4004ZM85.0938 28.3896C84.7845 28.3896 84.4258 28.3711 84.0176 28.334C83.6217 28.3092 83.3434 28.2845 83.1826 28.2598L83.2012 24.7158C83.3372 24.7282 83.5846 24.7467 83.9434 24.7715C84.3145 24.7839 84.5928 24.79 84.7783 24.79C85.7184 24.79 86.4049 24.5736 86.8379 24.1406C87.2832 23.6953 87.7038 23.0088 88.0996 22.0811L88.6377 20.8379L80.8447 4.23145L78.2656 3.86035V0.984375H87.9697V3.86035L85.8545 4.19434L89.7324 13.1377L90.6787 15.5498H90.79L95.0391 4.25L92.9795 3.86035V0.984375H102.461V3.86035L100.049 4.21289L92.0703 23.1758C91.5632 24.3014 91.0189 25.2539 90.4375 26.0332C89.8561 26.8125 89.1387 27.4001 88.2852 27.7959C87.444 28.1917 86.3802 28.3896 85.0938 28.3896ZM136.731 34.4941V28H104.502V25.1426L107.452 24.5859V4.41699L104.502 3.86035V0.984375H115.078V3.86035L112.128 4.41699V24.4004H120.403V4.41699L117.453 3.86035V0.984375H127.992V3.86035L125.061 4.41699V24.4004H133.262V4.41699L130.312 3.86035V0.984375H140.888V3.86035L137.938 4.41699V24.3818H141.352L140.999 34.4941H136.731ZM143.355 28V25.1426L146.306 24.5859V4.41699L143.355 3.86035V0.984375H146.306H150.981H153.932V3.86035L150.981 4.41699V18.2031L151.093 18.2402L162.856 5.99414V4.41699L159.925 3.86035V0.984375H162.856H167.551H170.482V3.86035L167.551 4.41699V24.5859L170.482 25.1426V28H159.925V25.1426L162.856 24.5859V11.1895L162.745 11.1523L150.981 23.3984V24.5859L153.932 25.1426V28H143.355ZM172.783 28V25.1426L175.733 24.5859V4.41699L172.783 3.86035V0.984375H193.36V7.94238H189.724L189.408 4.58398H180.409V12.2285H189.891V15.8467H180.409V24.4375H189.909L190.225 21.0049H193.824V28H172.783ZM206.367 28V25.1426L209.317 24.5859V4.41699L206.367 3.86035V0.984375H216.851V3.86035L213.993 4.41699V12.5068H216.628L222.139 4.56543C223.19 3.11816 224.136 2.1224 224.978 1.57812C225.819 1.02148 226.771 0.743164 227.835 0.743164C228.478 0.743164 229.041 0.823568 229.523 0.984375C230.018 1.14518 230.488 1.36784 230.934 1.65234L230.191 5.08496C229.895 5.02311 229.629 4.97363 229.394 4.93652C229.171 4.88704 228.942 4.8623 228.707 4.8623C228.163 4.8623 227.656 5.02311 227.186 5.34473C226.715 5.65397 226.171 6.22298 225.553 7.05176L220.673 13.8057L228.781 24.6787L231.49 25.1426V28H221.563V25.1426L223.326 24.9014L223.271 24.8271L217.296 16.6445H213.993V24.5859L216.851 25.1426V28H206.367ZM243.347 28.3896C241.553 28.3896 239.933 28.0557 238.485 27.3877C237.038 26.7074 235.795 25.7549 234.756 24.5303C233.729 23.3057 232.938 21.8584 232.381 20.1885C231.824 18.5186 231.546 16.6878 231.546 14.6963V14.2881C231.546 12.3089 231.824 10.4844 232.381 8.81445C232.938 7.14453 233.729 5.69727 234.756 4.47266C235.795 3.23568 237.038 2.2832 238.485 1.61523C239.933 0.934896 241.547 0.594727 243.328 0.594727C245.171 0.594727 246.823 0.934896 248.282 1.61523C249.742 2.2832 250.985 3.23568 252.012 4.47266C253.038 5.69727 253.824 7.14453 254.368 8.81445C254.912 10.4844 255.185 12.3089 255.185 14.2881V14.6963C255.185 16.6878 254.912 18.5186 254.368 20.1885C253.824 21.8584 253.038 23.3057 252.012 24.5303C250.985 25.7549 249.742 26.7074 248.282 27.3877C246.823 28.0557 245.177 28.3896 243.347 28.3896ZM243.347 24.6787C244.979 24.6787 246.322 24.2643 247.373 23.4355C248.437 22.5944 249.222 21.4255 249.729 19.9287C250.249 18.432 250.509 16.6878 250.509 14.6963V14.251C250.509 12.2842 250.249 10.5586 249.729 9.07422C249.21 7.58984 248.418 6.42708 247.354 5.58594C246.303 4.74479 244.961 4.32422 243.328 4.32422C241.77 4.32422 240.465 4.74479 239.413 5.58594C238.362 6.42708 237.57 7.58984 237.038 9.07422C236.506 10.5586 236.24 12.2842 236.24 14.251V14.6963C236.24 16.6755 236.506 18.4196 237.038 19.9287C237.57 21.4255 238.362 22.5944 239.413 23.4355C240.477 24.2643 241.788 24.6787 243.347 24.6787ZM258.395 28V25.1426L261.345 24.5859V4.41699L258.395 3.86035V0.984375H261.345H271.067C273.084 0.984375 274.809 1.33691 276.244 2.04199C277.691 2.74707 278.799 3.73047 279.565 4.99219C280.332 6.24154 280.716 7.70736 280.716 9.38965C280.716 11.0719 280.332 12.5439 279.565 13.8057C278.799 15.055 277.691 16.026 276.244 16.7188C274.809 17.4115 273.084 17.7578 271.067 17.7578H266.021V24.5859L268.971 25.1426V28H258.395ZM266.021 14.1396H271.067C272.725 14.1396 273.968 13.6943 274.797 12.8037C275.626 11.9131 276.04 10.7874 276.04 9.42676C276.04 8.04134 275.626 6.89095 274.797 5.97559C273.968 5.06022 272.725 4.60254 271.067 4.60254H266.021V14.1396ZM294.854 28.3896C293.061 28.3896 291.44 28.0557 289.993 27.3877C288.546 26.7074 287.303 25.7549 286.264 24.5303C285.237 23.3057 284.445 21.8584 283.889 20.1885C283.332 18.5186 283.054 16.6878 283.054 14.6963V14.2881C283.054 12.3089 283.332 10.4844 283.889 8.81445C284.445 7.14453 285.237 5.69727 286.264 4.47266C287.303 3.23568 288.546 2.2832 289.993 1.61523C291.44 0.934896 293.055 0.594727 294.836 0.594727C296.679 0.594727 298.33 0.934896 299.79 1.61523C301.25 2.2832 302.493 3.23568 303.52 4.47266C304.546 5.69727 305.332 7.14453 305.876 8.81445C306.42 10.4844 306.692 12.3089 306.692 14.2881V14.6963C306.692 16.6878 306.42 18.5186 305.876 20.1885C305.332 21.8584 304.546 23.3057 303.52 24.5303C302.493 25.7549 301.25 26.7074 299.79 27.3877C298.33 28.0557 296.685 28.3896 294.854 28.3896ZM294.854 24.6787C296.487 24.6787 297.829 24.2643 298.881 23.4355C299.945 22.5944 300.73 21.4255 301.237 19.9287C301.757 18.432 302.017 16.6878 302.017 14.6963V14.251C302.017 12.2842 301.757 10.5586 301.237 9.07422C300.718 7.58984 299.926 6.42708 298.862 5.58594C297.811 4.74479 296.469 4.32422 294.836 4.32422C293.277 4.32422 291.972 4.74479 290.921 5.58594C289.869 6.42708 289.078 7.58984 288.546 9.07422C288.014 10.5586 287.748 12.2842 287.748 14.251V14.6963C287.748 16.6755 288.014 18.4196 288.546 19.9287C289.078 21.4255 289.869 22.5944 290.921 23.4355C291.985 24.2643 293.296 24.6787 294.854 24.6787ZM309.049 28V24.4004H309.772C310.614 24.3509 311.312 24.1406 311.869 23.7695C312.438 23.3861 312.89 22.7799 313.224 21.9512C313.558 21.11 313.811 19.9967 313.984 18.6113C314.158 17.2259 314.269 15.5127 314.318 13.4717L314.541 4.39844L311.684 3.86035V0.984375H335.155V3.86035L332.205 4.41699V24.5859L335.155 25.1426V28H324.598V25.1426L327.548 24.5859V4.60254H319.198L318.976 13.4717C318.914 16.057 318.703 18.2712 318.345 20.1143C317.986 21.945 317.454 23.4479 316.749 24.623C316.044 25.7858 315.153 26.6393 314.077 27.1836C313.013 27.7279 311.727 28 310.218 28H309.049ZM337.623 28V25.1426L340.573 24.5859V4.41699L337.623 3.86035V0.984375H340.573H345.249H348.199V3.86035L345.249 4.41699V18.2031L345.36 18.2402L357.124 5.99414V4.41699L354.192 3.86035V0.984375H357.124H361.818H364.75V3.86035L361.818 4.41699V24.5859L364.75 25.1426V28H354.192V25.1426L357.124 24.5859V11.1895L357.013 11.1523L345.249 23.3984V24.5859L348.199 25.1426V28H337.623Z" fill="white"/>
</svg>
