<svg width="240" height="14" viewBox="0 0 240 14" fill="none" xmlns="http://www.w3.org/2000/svg">
<path d="M4.628 11.168L1.968 4.98C1.898 4.81667 1.82333 4.63933 1.744 4.448C1.66933 4.252 1.604 4.07467 1.548 3.916C1.562 4.042 1.57133 4.21 1.576 4.42C1.58533 4.62533 1.59 4.812 1.59 4.98V11H0.372V1.2H1.52L4.376 7.794C4.418 7.89667 4.46 8.004 4.502 8.116C4.544 8.228 4.586 8.34 4.628 8.452C4.66533 8.34467 4.705 8.23733 4.747 8.13C4.789 8.018 4.83333 7.906 4.88 7.794L7.722 1.2H8.884V11H7.666V4.98C7.666 4.812 7.66833 4.623 7.673 4.413C7.68233 4.19833 7.68933 4.028 7.694 3.902C7.638 4.06067 7.568 4.24267 7.484 4.448C7.40467 4.65333 7.33 4.84 7.26 5.008L4.628 11.168ZM12.261 13.716L13.353 10.818L10.707 3.846H11.925L13.703 8.718C13.7543 8.844 13.7963 8.95833 13.829 9.061C13.8616 9.16367 13.8943 9.278 13.927 9.404C13.9643 9.278 13.9993 9.16367 14.032 9.061C14.0646 8.95833 14.1043 8.844 14.151 8.718L15.957 3.846H17.203L13.493 13.716H12.261ZM21.5385 11.168C20.8338 11.168 20.1968 10.9953 19.6275 10.65C19.0628 10.3 18.6545 9.81 18.4025 9.18L19.4665 8.802C19.6578 9.21267 19.9308 9.523 20.2855 9.733C20.6401 9.943 21.0578 10.048 21.5385 10.048C21.9958 10.048 22.3645 9.95467 22.6445 9.768C22.9245 9.57667 23.0645 9.31067 23.0645 8.97C23.0645 8.65267 22.9315 8.40067 22.6655 8.214C22.3995 8.02733 22.0145 7.934 21.5105 7.934H20.2645V6.814H21.5105C21.9165 6.814 22.2268 6.72067 22.4415 6.534C22.6608 6.34733 22.7705 6.1 22.7705 5.792C22.7705 5.484 22.6515 5.24133 22.4135 5.064C22.1801 4.88667 21.8745 4.798 21.4965 4.798C21.0765 4.798 20.7101 4.896 20.3975 5.092C20.0895 5.288 19.8585 5.582 19.7045 5.974L18.6685 5.526C18.8738 4.952 19.2355 4.50167 19.7535 4.175C20.2761 3.84367 20.8618 3.678 21.5105 3.678C22.2805 3.678 22.8871 3.867 23.3305 4.245C23.7785 4.623 24.0025 5.106 24.0025 5.694C24.0025 6.044 23.9115 6.36133 23.7295 6.646C23.5475 6.926 23.2698 7.14067 22.8965 7.29C23.3538 7.402 23.7015 7.619 23.9395 7.941C24.1775 8.263 24.2965 8.62 24.2965 9.012C24.2965 9.642 24.0491 10.16 23.5545 10.566C23.0645 10.9673 22.3925 11.168 21.5385 11.168ZM29.17 11.168C28.5167 11.168 27.952 11.007 27.476 10.685C27 10.363 26.6337 9.91967 26.377 9.355C26.1203 8.79033 25.992 8.144 25.992 7.416C25.992 6.62733 26.125 5.95533 26.391 5.4C26.657 4.84 27.028 4.413 27.504 4.119C27.98 3.825 28.5353 3.678 29.17 3.678C29.7067 3.678 30.199 3.79933 30.647 4.042C31.095 4.28 31.452 4.651 31.718 5.155C31.9887 5.65433 32.124 6.296 32.124 7.08C32.124 7.192 32.1193 7.32267 32.11 7.472C32.1053 7.61667 32.096 7.766 32.082 7.92H27.238C27.2847 8.354 27.392 8.73433 27.56 9.061C27.728 9.38767 27.9497 9.64433 28.225 9.831C28.5003 10.013 28.8247 10.104 29.198 10.104C29.5013 10.104 29.7813 10.0503 30.038 9.943C30.2993 9.83567 30.542 9.67 30.766 9.446L31.48 10.244C31.214 10.51 30.8827 10.7317 30.486 10.909C30.094 11.0817 29.6553 11.168 29.17 11.168ZM27.224 6.856H30.892C30.892 6.45 30.8243 6.08833 30.689 5.771C30.5583 5.449 30.3647 5.197 30.108 5.015C29.8513 4.833 29.5387 4.742 29.17 4.742C28.652 4.742 28.2063 4.91 27.833 5.246C27.4643 5.582 27.2613 6.11867 27.224 6.856ZM34.0136 11V3.846H35.2316V8.858L38.7036 3.846H39.9216V11H38.7036V6.002L35.2316 11H34.0136ZM36.9676 2.894C36.3516 2.894 35.8382 2.79133 35.4276 2.586C35.0216 2.376 34.7159 2.09833 34.5106 1.753C34.3099 1.40767 34.2096 1.02733 34.2096 0.611999H35.3016C35.3016 0.868666 35.3739 1.09267 35.5186 1.284C35.6679 1.47067 35.8686 1.61533 36.1206 1.718C36.3726 1.82067 36.6549 1.872 36.9676 1.872C37.2802 1.872 37.5626 1.82067 37.8146 1.718C38.0712 1.61533 38.2742 1.47067 38.4236 1.284C38.5729 1.09267 38.6476 0.868666 38.6476 0.611999H39.7396C39.7396 1.02733 39.6369 1.40767 39.4316 1.753C39.2262 2.09833 38.9182 2.376 38.5076 2.586C38.0969 2.79133 37.5836 2.894 36.9676 2.894ZM48.087 11.168C47.471 11.168 46.9413 11.0187 46.498 10.72C46.0546 10.4167 45.714 9.98733 45.476 9.432C45.238 8.872 45.119 8.20467 45.119 7.43C45.119 6.65067 45.2403 5.981 45.483 5.421C45.7256 4.861 46.071 4.43167 46.519 4.133C46.9716 3.82967 47.513 3.678 48.143 3.678C48.759 3.678 49.2816 3.82033 49.711 4.105C50.1403 4.38967 50.453 4.80267 50.649 5.344L49.501 5.764C49.3843 5.456 49.2093 5.22033 48.976 5.057C48.7473 4.89367 48.4743 4.812 48.157 4.812C47.5783 4.812 47.135 5.036 46.827 5.484C46.519 5.932 46.365 6.58067 46.365 7.43C46.365 8.26067 46.5166 8.9 46.82 9.348C47.1233 9.796 47.555 10.02 48.115 10.02C48.4743 10.02 48.78 9.92667 49.032 9.74C49.2886 9.55333 49.4683 9.292 49.571 8.956L50.705 9.334C50.5323 9.922 50.2173 10.3747 49.76 10.692C49.3026 11.0093 48.745 11.168 48.087 11.168ZM55.3376 11.168C54.3576 11.168 53.5853 10.8343 53.0206 10.167C52.456 9.495 52.1736 8.58267 52.1736 7.43C52.1736 6.66 52.302 5.995 52.5586 5.435C52.8153 4.875 53.1793 4.44333 53.6506 4.14C54.1266 3.832 54.689 3.678 55.3376 3.678C55.991 3.678 56.5533 3.82967 57.0246 4.133C57.5006 4.43167 57.8646 4.861 58.1166 5.421C58.3733 5.981 58.5016 6.646 58.5016 7.416C58.5016 8.186 58.3733 8.85333 58.1166 9.418C57.86 9.978 57.4936 10.4097 57.0176 10.713C56.5463 11.0163 55.9863 11.168 55.3376 11.168ZM55.3376 10.034C55.9396 10.034 56.411 9.803 56.7516 9.341C57.097 8.87433 57.2696 8.23267 57.2696 7.416C57.2696 6.59467 57.097 5.953 56.7516 5.491C56.411 5.029 55.9396 4.798 55.3376 4.798C54.731 4.798 54.2573 5.029 53.9166 5.491C53.576 5.94833 53.4056 6.59467 53.4056 7.43C53.4056 8.24667 53.576 8.886 53.9166 9.348C54.2573 9.80533 54.731 10.034 55.3376 10.034ZM60.4686 11V3.846H63.6886C64.1646 3.846 64.5706 3.92533 64.9066 4.084C65.2426 4.238 65.4993 4.45733 65.6766 4.742C65.854 5.022 65.9426 5.35333 65.9426 5.736C65.9426 6.07667 65.854 6.38233 65.6766 6.653C65.504 6.919 65.2566 7.11267 64.9346 7.234C65.3546 7.36467 65.672 7.57233 65.8866 7.857C66.1013 8.137 66.2086 8.48467 66.2086 8.9C66.2086 9.31067 66.1176 9.67467 65.9356 9.992C65.7536 10.3047 65.4853 10.552 65.1306 10.734C64.7806 10.9113 64.3513 11 63.8426 11H60.4686ZM61.6866 9.936H63.7726C64.0246 9.936 64.2393 9.89633 64.4166 9.817C64.594 9.733 64.7293 9.614 64.8226 9.46C64.916 9.30133 64.9626 9.11 64.9626 8.886C64.9626 8.662 64.9043 8.473 64.7876 8.319C64.6756 8.165 64.5076 8.04833 64.2836 7.969C64.0643 7.88967 63.7913 7.85 63.4646 7.85H61.6866V9.936ZM61.6866 6.786H63.3666C63.8006 6.786 64.1296 6.709 64.3536 6.555C64.5823 6.39633 64.6966 6.17467 64.6966 5.89C64.6966 5.68467 64.6523 5.50967 64.5636 5.365C64.475 5.21567 64.3443 5.10367 64.1716 5.029C64.0036 4.94967 63.8006 4.91 63.5626 4.91H61.6866V6.786ZM68.33 13.842V3.846H69.548V4.448C70.0613 3.93467 70.6726 3.678 71.382 3.678C71.9886 3.678 72.5113 3.82967 72.95 4.133C73.3933 4.43633 73.734 4.868 73.972 5.428C74.2146 5.988 74.336 6.65067 74.336 7.416C74.336 8.18133 74.2146 8.84633 73.972 9.411C73.7293 9.971 73.3863 10.405 72.943 10.713C72.5043 11.0163 71.984 11.168 71.382 11.168C71.004 11.168 70.6633 11.1003 70.36 10.965C70.0566 10.825 69.786 10.6127 69.548 10.328V13.268L68.33 13.842ZM71.228 10.034C71.83 10.034 72.2896 9.80767 72.607 9.355C72.929 8.90233 73.09 8.256 73.09 7.416C73.09 6.60867 72.922 5.97167 72.586 5.505C72.25 5.03367 71.7973 4.798 71.228 4.798C70.864 4.798 70.5373 4.882 70.248 5.05C69.9586 5.218 69.7253 5.456 69.548 5.764V9.068C69.7953 9.39 70.059 9.63267 70.339 9.796C70.619 9.95467 70.9153 10.034 71.228 10.034ZM79.1134 11.168C78.46 11.168 77.8954 11.007 77.4194 10.685C76.9434 10.363 76.577 9.91967 76.3204 9.355C76.0637 8.79033 75.9354 8.144 75.9354 7.416C75.9354 6.62733 76.0684 5.95533 76.3344 5.4C76.6004 4.84 76.9714 4.413 77.4474 4.119C77.9234 3.825 78.4787 3.678 79.1134 3.678C79.65 3.678 80.1424 3.79933 80.5904 4.042C81.0384 4.28 81.3954 4.651 81.6614 5.155C81.932 5.65433 82.0674 6.296 82.0674 7.08C82.0674 7.192 82.0627 7.32267 82.0534 7.472C82.0487 7.61667 82.0394 7.766 82.0254 7.92H77.1814C77.228 8.354 77.3354 8.73433 77.5034 9.061C77.6714 9.38767 77.893 9.64433 78.1684 9.831C78.4437 10.013 78.768 10.104 79.1414 10.104C79.4447 10.104 79.7247 10.0503 79.9814 9.943C80.2427 9.83567 80.4854 9.67 80.7094 9.446L81.4234 10.244C81.1574 10.51 80.826 10.7317 80.4294 10.909C80.0374 11.0817 79.5987 11.168 79.1134 11.168ZM77.1674 6.856H80.8354C80.8354 6.45 80.7677 6.08833 80.6324 5.771C80.5017 5.449 80.308 5.197 80.0514 5.015C79.7947 4.833 79.482 4.742 79.1134 4.742C78.5954 4.742 78.1497 4.91 77.7764 5.246C77.4077 5.582 77.2047 6.11867 77.1674 6.856ZM87.5546 11.126L85.5526 7.178C85.4733 7.01467 85.4009 6.863 85.3356 6.723C85.2703 6.57833 85.2026 6.422 85.1326 6.254C85.1466 6.366 85.1583 6.50367 85.1676 6.667C85.1816 6.83033 85.1886 7.00067 85.1886 7.178V11H83.9706V3.846H85.0626L87.2466 8.172C87.3259 8.33067 87.3889 8.459 87.4356 8.557C87.4823 8.655 87.5219 8.746 87.5546 8.83C87.5919 8.746 87.6316 8.655 87.6736 8.557C87.7203 8.459 87.7833 8.33067 87.8626 8.172L90.0466 3.846H91.1386V11H89.9206V7.29C89.9206 7.11267 89.9253 6.94 89.9346 6.772C89.9486 6.604 89.9626 6.464 89.9766 6.352C89.9066 6.52 89.8389 6.67633 89.7736 6.821C89.7083 6.96567 89.6313 7.122 89.5426 7.29L87.5546 11.126ZM96.2305 11.168C95.5772 11.168 95.0125 11.007 94.5365 10.685C94.0605 10.363 93.6942 9.91967 93.4375 9.355C93.1809 8.79033 93.0525 8.144 93.0525 7.416C93.0525 6.62733 93.1855 5.95533 93.4515 5.4C93.7175 4.84 94.0885 4.413 94.5645 4.119C95.0405 3.825 95.5959 3.678 96.2305 3.678C96.7672 3.678 97.2595 3.79933 97.7075 4.042C98.1555 4.28 98.5125 4.651 98.7785 5.155C99.0492 5.65433 99.1845 6.296 99.1845 7.08C99.1845 7.192 99.1799 7.32267 99.1705 7.472C99.1659 7.61667 99.1565 7.766 99.1425 7.92H94.2985C94.3452 8.354 94.4525 8.73433 94.6205 9.061C94.7885 9.38767 95.0102 9.64433 95.2855 9.831C95.5609 10.013 95.8852 10.104 96.2585 10.104C96.5619 10.104 96.8419 10.0503 97.0985 9.943C97.3599 9.83567 97.6025 9.67 97.8265 9.446L98.5405 10.244C98.2745 10.51 97.9432 10.7317 97.5465 10.909C97.1545 11.0817 96.7159 11.168 96.2305 11.168ZM94.2845 6.856H97.9525C97.9525 6.45 97.8849 6.08833 97.7495 5.771C97.6189 5.449 97.4252 5.197 97.1685 5.015C96.9119 4.833 96.5992 4.742 96.2305 4.742C95.7125 4.742 95.2669 4.91 94.8935 5.246C94.5249 5.582 94.3219 6.11867 94.2845 6.856ZM101.088 11V3.846H102.306V6.786H105.848V3.846H107.066V11H105.848V7.85H102.306V11H101.088ZM109.441 11V3.846H110.659V6.786H114.201V3.846H115.419V11H114.201V7.85H110.659V11H109.441ZM120.566 11.168C119.586 11.168 118.814 10.8343 118.249 10.167C117.684 9.495 117.402 8.58267 117.402 7.43C117.402 6.66 117.53 5.995 117.787 5.435C118.044 4.875 118.408 4.44333 118.879 4.14C119.355 3.832 119.917 3.678 120.566 3.678C121.219 3.678 121.782 3.82967 122.253 4.133C122.729 4.43167 123.093 4.861 123.345 5.421C123.602 5.981 123.73 6.646 123.73 7.416C123.73 8.186 123.602 8.85333 123.345 9.418C123.088 9.978 122.722 10.4097 122.246 10.713C121.775 11.0163 121.215 11.168 120.566 11.168ZM120.566 10.034C121.168 10.034 121.639 9.803 121.98 9.341C122.325 8.87433 122.498 8.23267 122.498 7.416C122.498 6.59467 122.325 5.953 121.98 5.491C121.639 5.029 121.168 4.798 120.566 4.798C119.959 4.798 119.486 5.029 119.145 5.491C118.804 5.94833 118.634 6.59467 118.634 7.43C118.634 8.24667 118.804 8.886 119.145 9.348C119.486 9.80533 119.959 10.034 120.566 10.034ZM125.697 11V3.846H126.915V8.858L130.387 3.846H131.605V11H130.387V6.002L126.915 11H125.697ZM128.651 2.894C128.035 2.894 127.522 2.79133 127.111 2.586C126.705 2.376 126.399 2.09833 126.194 1.753C125.993 1.40767 125.893 1.02733 125.893 0.611999H126.985C126.985 0.868666 127.057 1.09267 127.202 1.284C127.351 1.47067 127.552 1.61533 127.804 1.718C128.056 1.82067 128.338 1.872 128.651 1.872C128.964 1.872 129.246 1.82067 129.498 1.718C129.755 1.61533 129.958 1.47067 130.107 1.284C130.256 1.09267 130.331 0.868666 130.331 0.611999H131.423C131.423 1.02733 131.32 1.40767 131.115 1.753C130.91 2.09833 130.602 2.376 130.191 2.586C129.78 2.79133 129.267 2.894 128.651 2.894ZM137.223 11V3.846H138.441V8.858L141.913 3.846H143.131V11H141.913V6.002L138.441 11H137.223ZM148.069 11.168C147.453 11.168 146.924 11.0187 146.48 10.72C146.037 10.4167 145.696 9.98733 145.458 9.432C145.22 8.872 145.101 8.20467 145.101 7.43C145.101 6.65067 145.223 5.981 145.465 5.421C145.708 4.861 146.053 4.43167 146.501 4.133C146.954 3.82967 147.495 3.678 148.125 3.678C148.741 3.678 149.264 3.82033 149.693 4.105C150.123 4.38967 150.435 4.80267 150.631 5.344L149.483 5.764C149.367 5.456 149.192 5.22033 148.958 5.057C148.73 4.89367 148.457 4.812 148.139 4.812C147.561 4.812 147.117 5.036 146.809 5.484C146.501 5.932 146.347 6.58067 146.347 7.43C146.347 8.26067 146.499 8.9 146.802 9.348C147.106 9.796 147.537 10.02 148.097 10.02C148.457 10.02 148.762 9.92667 149.014 9.74C149.271 9.55333 149.451 9.292 149.553 8.956L150.687 9.334C150.515 9.922 150.2 10.3747 149.742 10.692C149.285 11.0093 148.727 11.168 148.069 11.168ZM154.085 11V4.91H151.943V3.846H157.445V4.91H155.303V11H154.085ZM161.828 11.168C160.848 11.168 160.076 10.8343 159.511 10.167C158.946 9.495 158.664 8.58267 158.664 7.43C158.664 6.66 158.792 5.995 159.049 5.435C159.306 4.875 159.67 4.44333 160.141 4.14C160.617 3.832 161.179 3.678 161.828 3.678C162.481 3.678 163.044 3.82967 163.515 4.133C163.991 4.43167 164.355 4.861 164.607 5.421C164.864 5.981 164.992 6.646 164.992 7.416C164.992 8.186 164.864 8.85333 164.607 9.418C164.35 9.978 163.984 10.4097 163.508 10.713C163.037 11.0163 162.477 11.168 161.828 11.168ZM161.828 10.034C162.43 10.034 162.901 9.803 163.242 9.341C163.587 8.87433 163.76 8.23267 163.76 7.416C163.76 6.59467 163.587 5.953 163.242 5.491C162.901 5.029 162.43 4.798 161.828 4.798C161.221 4.798 160.748 5.029 160.407 5.491C160.066 5.94833 159.896 6.59467 159.896 7.43C159.896 8.24667 160.066 8.886 160.407 9.348C160.748 9.80533 161.221 10.034 161.828 10.034ZM166.959 13.842V3.846H168.177V4.448C168.69 3.93467 169.302 3.678 170.011 3.678C170.618 3.678 171.14 3.82967 171.579 4.133C172.022 4.43633 172.363 4.868 172.601 5.428C172.844 5.988 172.965 6.65067 172.965 7.416C172.965 8.18133 172.844 8.84633 172.601 9.411C172.358 9.971 172.015 10.405 171.572 10.713C171.133 11.0163 170.613 11.168 170.011 11.168C169.633 11.168 169.292 11.1003 168.989 10.965C168.686 10.825 168.415 10.6127 168.177 10.328V13.268L166.959 13.842ZM169.857 10.034C170.459 10.034 170.919 9.80767 171.236 9.355C171.558 8.90233 171.719 8.256 171.719 7.416C171.719 6.60867 171.551 5.97167 171.215 5.505C170.879 5.03367 170.426 4.798 169.857 4.798C169.493 4.798 169.166 4.882 168.877 5.05C168.588 5.218 168.354 5.456 168.177 5.764V9.068C168.424 9.39 168.688 9.63267 168.968 9.796C169.248 9.95467 169.544 10.034 169.857 10.034ZM174.943 11V3.846H176.161V8.858L179.633 3.846H180.851V11H179.633V6.002L176.161 11H174.943ZM183.228 11V3.846H184.446V8.858L187.918 3.846H189.136V11H187.918V6.002L184.446 11H183.228ZM194.964 11V1.2H198.716C199.509 1.2 200.137 1.34467 200.599 1.634C201.061 1.91867 201.39 2.28733 201.586 2.74C201.782 3.188 201.88 3.65467 201.88 4.14C201.88 4.476 201.821 4.81667 201.705 5.162C201.593 5.50267 201.411 5.81767 201.159 6.107C200.907 6.39633 200.58 6.62967 200.179 6.807C199.777 6.97967 199.29 7.066 198.716 7.066H196.182V11H194.964ZM196.182 5.932H198.8C199.262 5.932 199.628 5.841 199.899 5.659C200.174 5.477 200.37 5.24833 200.487 4.973C200.603 4.69767 200.662 4.42 200.662 4.14C200.662 3.88333 200.608 3.615 200.501 3.335C200.398 3.055 200.211 2.81933 199.941 2.628C199.67 2.432 199.29 2.334 198.8 2.334H196.182V5.932ZM206.426 11.168C205.446 11.168 204.673 10.8343 204.109 10.167C203.544 9.495 203.262 8.58267 203.262 7.43C203.262 6.66 203.39 5.995 203.647 5.435C203.903 4.875 204.267 4.44333 204.739 4.14C205.215 3.832 205.777 3.678 206.426 3.678C207.079 3.678 207.641 3.82967 208.113 4.133C208.589 4.43167 208.953 4.861 209.205 5.421C209.461 5.981 209.59 6.646 209.59 7.416C209.59 8.186 209.461 8.85333 209.205 9.418C208.948 9.978 208.582 10.4097 208.106 10.713C207.634 11.0163 207.074 11.168 206.426 11.168ZM206.426 10.034C207.028 10.034 207.499 9.803 207.84 9.341C208.185 8.87433 208.358 8.23267 208.358 7.416C208.358 6.59467 208.185 5.953 207.84 5.491C207.499 5.029 207.028 4.798 206.426 4.798C205.819 4.798 205.345 5.029 205.005 5.491C204.664 5.94833 204.494 6.59467 204.494 7.43C204.494 8.24667 204.664 8.886 205.005 9.348C205.345 9.80533 205.819 10.034 206.426 10.034ZM214.146 11.168C213.53 11.168 213 11.0187 212.557 10.72C212.113 10.4167 211.773 9.98733 211.535 9.432C211.297 8.872 211.178 8.20467 211.178 7.43C211.178 6.65067 211.299 5.981 211.542 5.421C211.784 4.861 212.13 4.43167 212.578 4.133C213.03 3.82967 213.572 3.678 214.202 3.678C214.818 3.678 215.34 3.82033 215.77 4.105C216.199 4.38967 216.512 4.80267 216.708 5.344L215.56 5.764C215.443 5.456 215.268 5.22033 215.035 5.057C214.806 4.89367 214.533 4.812 214.216 4.812C213.637 4.812 213.194 5.036 212.886 5.484C212.578 5.932 212.424 6.58067 212.424 7.43C212.424 8.26067 212.575 8.9 212.879 9.348C213.182 9.796 213.614 10.02 214.174 10.02C214.533 10.02 214.839 9.92667 215.091 9.74C215.347 9.55333 215.527 9.292 215.63 8.956L216.764 9.334C216.591 9.922 216.276 10.3747 215.819 10.692C215.361 11.0093 214.804 11.168 214.146 11.168ZM221.2 11.168C220.584 11.168 220.055 11.0187 219.611 10.72C219.168 10.4167 218.827 9.98733 218.589 9.432C218.351 8.872 218.232 8.20467 218.232 7.43C218.232 6.65067 218.354 5.981 218.596 5.421C218.839 4.861 219.184 4.43167 219.632 4.133C220.085 3.82967 220.626 3.678 221.256 3.678C221.872 3.678 222.395 3.82033 222.824 4.105C223.254 4.38967 223.566 4.80267 223.762 5.344L222.614 5.764C222.498 5.456 222.323 5.22033 222.089 5.057C221.861 4.89367 221.588 4.812 221.27 4.812C220.692 4.812 220.248 5.036 219.94 5.484C219.632 5.932 219.478 6.58067 219.478 7.43C219.478 8.26067 219.63 8.9 219.933 9.348C220.237 9.796 220.668 10.02 221.228 10.02C221.588 10.02 221.893 9.92667 222.145 9.74C222.402 9.55333 222.582 9.292 222.684 8.956L223.818 9.334C223.646 9.922 223.331 10.3747 222.873 10.692C222.416 11.0093 221.858 11.168 221.2 11.168ZM225.68 11V3.846H226.898V8.858L230.37 3.846H231.588V11H230.37V6.002L226.898 11H225.68ZM233.965 11V3.846H235.183V8.858L238.655 3.846H239.873V11H238.655V6.002L235.183 11H233.965Z" fill="#EA4646"/>
</svg>
